<svg width="309" height="246" viewBox="0 0 309 246" fill="none" xmlns="http://www.w3.org/2000/svg">
<path opacity="0.0713077" d="M302 78.0965C298.377 69.4235 293.479 61.3776 287.479 54.2421L86.0234 52.1968L251.889 28.1797C241.176 23.7787 229.768 21.4456 218.236 21.2965C185.652 -5.56697 139.822 -7.16867 105.549 17.3582C92.2099 10.2908 77.4236 6.61937 62.4266 6.65089C17.6664 6.65089 -19.632 38.6137 -28 81L302 78.0965Z" fill="#6364FF"/>
<path opacity="0.0713077" d="M309 109.551C309.01 98.3987 306.874 87.3483 302.707 77L-47.3292 113.661C-50.9289 120.173 -53.6835 127.116 -55.5266 134.322L52.8672 150.439L-58 162.192C-54.6652 208.748 -14.664 245.513 34.2043 245.513C58.7999 245.513 81.1477 236.195 97.7108 221.001C114.321 236.481 136.884 246 161.746 246C198.634 246 230.468 225.044 245.295 194.743C275.039 185.341 298.127 161.671 306.052 132.082L168.967 110.884H308.98C308.98 110.441 309 109.997 309 109.551Z" fill="#6364FF"/>
</svg>
