<svg width="281" height="278" viewBox="0 0 281 278" fill="none" xmlns="http://www.w3.org/2000/svg">
<path d="M280.595 70.7047C280.595 83.4727 277.324 93.8217 273.288 93.8217H269.694V90.8287C267.476 86.8577 265.981 79.3367 265.981 70.7047C265.937 65.9514 266.448 61.2092 267.505 56.5747C267.971 54.4895 268.707 52.4741 269.694 50.5797L269.694 47.5877H273.288C275.643 47.5877 277.734 51.1077 279.074 56.5747C280.129 61.2096 280.639 65.9516 280.595 70.7047Z" fill="#323232"/>
<path d="M280.595 70.7057C280.595 83.4737 277.324 93.8227 273.288 93.8227H269.694V90.8297C267.476 86.8587 265.981 79.3367 265.981 70.7057C265.937 65.9524 266.448 61.2102 267.505 56.5757L279.074 56.5757C280.129 61.2106 280.639 65.9526 280.595 70.7057Z" fill="black"/>
<path d="M277.002 70.7047C277.002 83.4707 273.73 93.8197 269.694 93.8197C265.658 93.8197 262.386 83.4707 262.386 70.7047C262.386 57.9387 265.658 47.5887 269.694 47.5887C273.73 47.5887 277.002 57.9377 277.002 70.7047Z" fill="#323232"/>
<path d="M277.663 70.7047C277.663 87.8047 273.283 101.664 267.877 101.664H263.063V97.6567C260.091 92.3387 258.091 82.2647 258.091 70.7047C258.032 64.3391 258.717 57.9883 260.132 51.7817C260.756 48.9895 261.741 46.2907 263.063 43.7537V39.7457H267.876C271.029 39.7457 273.831 44.4607 275.626 51.7817C277.037 57.9889 277.72 64.3394 277.662 70.7047" fill="#323232"/>
<path d="M277.663 70.7047C277.663 87.8047 273.283 101.664 267.877 101.664H263.063V97.6567C260.091 92.3387 258.091 82.2647 258.091 70.7047C258.032 64.339 258.717 57.9882 260.132 51.7817L275.626 51.7817C277.037 57.9889 277.72 64.3394 277.662 70.7047" fill="black"/>
<path d="M272.851 70.7047C272.851 87.8047 268.469 101.662 263.063 101.662C257.657 101.662 253.276 87.8017 253.276 70.7047C253.276 53.6077 257.658 39.7477 263.063 39.7477C268.468 39.7477 272.851 53.6077 272.851 70.7047Z" fill="#323232"/>
<path d="M273.143 70.7047C273.143 91.7577 267.75 108.822 261.095 108.822H255.165V103.888C251.508 97.3407 249.043 84.9367 249.043 70.7047C248.97 62.8666 249.814 55.0469 251.556 47.4047C252.324 43.9672 253.537 40.6447 255.165 37.5217L255.165 32.5877H261.091C264.973 32.5877 268.423 38.3877 270.633 47.4057C272.371 55.0486 273.212 62.868 273.14 70.7057" fill="#323232"/>
<path d="M273.143 70.7057C273.143 91.7587 267.75 108.823 261.095 108.823H255.165V103.888C251.508 97.3407 249.043 84.9367 249.043 70.7057C248.97 62.8676 249.814 55.0479 251.556 47.4057L270.633 47.4057C272.372 55.0485 273.214 62.8679 273.143 70.7057Z" fill="black"/>
<path d="M267.215 70.7047C267.215 91.7547 261.815 108.82 255.164 108.82C248.513 108.82 243.115 91.7547 243.115 70.7047C243.115 49.6547 248.515 32.5897 255.165 32.5897C261.815 32.5897 267.215 49.6537 267.215 70.7047Z" fill="#323232"/>
<path d="M268.077 70.7047C268.077 95.2867 261.777 115.213 254.009 115.213H247.089V109.452C242.819 101.807 239.941 87.3227 239.941 70.7047C239.856 61.5524 240.84 52.4214 242.875 43.4977C243.772 39.484 245.188 35.6045 247.089 31.9577L247.089 26.1977H254.009C258.542 26.1977 262.569 32.9747 265.151 43.4977C267.18 52.42 268.162 61.5481 268.078 70.6977" fill="#323232"/>
<path d="M268.077 70.7007C268.077 95.2827 261.777 115.209 254.009 115.209H247.089V109.452C242.819 101.807 239.941 87.3227 239.941 70.7007C239.856 61.5507 240.841 52.4221 242.875 43.5007L265.15 43.5007C267.179 52.4229 268.161 61.5511 268.077 70.7007Z" fill="black"/>
<path d="M261.16 70.6997C261.16 95.2797 254.86 115.2 247.089 115.2C239.318 115.2 233.019 95.2847 233.019 70.6997C233.019 46.1147 239.319 26.1997 247.089 26.1997C254.859 26.1997 261.16 46.1257 261.16 70.6997Z" fill="#323232"/>
<path d="M263.039 69.2477C263.039 96.5107 256.055 118.61 247.439 118.61H239.762V112.221C235.026 103.742 231.834 87.6787 231.834 69.2477C231.74 59.0976 232.832 48.9712 235.088 39.0747C236.082 34.6227 237.654 30.3196 239.762 26.2747L239.762 19.8847H247.434C252.463 19.8847 256.934 27.4017 259.793 39.0747C262.043 48.9719 263.132 59.0984 263.039 69.2477Z" fill="#323232"/>
<path d="M263.039 69.2467C263.039 96.5097 256.055 118.609 247.439 118.609H239.762V112.221C235.026 103.741 231.834 87.6747 231.834 69.2467C231.74 59.0969 232.832 48.9709 235.088 39.0747L259.793 39.0747C262.043 48.9719 263.132 59.0974 263.039 69.2467Z" fill="black"/>
<path d="M255.367 69.2477C255.367 96.5087 248.38 118.608 239.762 118.608C231.144 118.608 224.156 96.5077 224.156 69.2477C224.156 41.9877 231.143 19.8877 239.761 19.8877C248.379 19.8877 255.367 41.9877 255.367 69.2477Z" fill="#323232"/>
<path d="M258.128 69.2477C258.128 102.354 249.647 129.19 239.181 129.19H229.861V121.432C224.111 111.135 220.234 91.6287 220.234 69.2477C220.119 56.9215 221.445 44.624 224.186 32.6057C225.393 27.2005 227.301 21.976 229.861 17.0647L229.861 9.30569H239.181C245.281 9.30569 250.709 18.4337 254.181 32.6057C256.913 44.6243 258.236 56.9201 258.123 69.2447" fill="#323232"/>
<path d="M258.128 69.2477C258.128 102.354 249.647 129.19 239.181 129.19H229.861V121.431C224.111 111.135 220.234 91.6287 220.234 69.2477C220.119 56.9224 221.446 44.626 224.186 32.6087L254.186 32.6087C256.918 44.6272 258.241 56.9231 258.128 69.2477Z" fill="black"/>
<path d="M248.811 69.2477C248.811 102.348 240.327 129.187 229.861 129.187C219.395 129.187 210.911 102.351 210.911 69.2477C210.911 36.1447 219.396 9.30869 229.861 9.30869C240.326 9.30869 248.811 36.1447 248.811 69.2477Z" fill="#323232"/>
<path d="M211.472 63.7627C216.452 65.8515 221.323 68.1908 226.066 70.7717" stroke="black" stroke-width="4.355" stroke-linecap="round"/>
<path d="M58.6942 69.2467C58.6942 69.2467 112.512 46.2807 152.094 48.7697C175.869 50.2647 197.77 57.9017 211.472 63.7627" stroke="#323232" stroke-width="4.355" stroke-linecap="round" stroke-linejoin="round"/>
<path d="M71.0132 69.2477C71.0132 102.354 62.5322 129.19 52.0662 129.19H42.7462V121.432C36.9962 111.135 33.1192 91.6287 33.1192 69.2477C33.0042 56.9215 34.3305 44.624 37.0712 32.6057C38.2785 27.2005 40.1863 21.976 42.7462 17.0647L42.7462 9.30569H52.0662C58.1662 9.30569 63.5942 18.4337 67.0662 32.6057C69.7981 44.6243 71.121 56.9201 71.0082 69.2447" fill="#323232"/>
<path d="M71.0132 69.2477C71.0132 102.354 62.5322 129.19 52.0662 129.19H42.7462V121.431C36.9962 111.135 33.1192 91.6287 33.1192 69.2477C33.0044 56.9224 34.3307 44.626 37.0712 32.6087L67.0712 32.6087C69.8031 44.6272 71.126 56.9231 71.0132 69.2477Z" fill="black"/>
<path d="M61.6962 69.2477C61.6962 102.348 53.2122 129.187 42.7462 129.187C32.2802 129.187 23.7962 102.351 23.7962 69.2477C23.7962 36.1447 32.2812 9.30869 42.7462 9.30869C53.2112 9.30869 61.6962 36.1447 61.6962 69.2477Z" fill="#323232"/>
<path d="M58.6932 69.2477C58.6932 96.5117 51.7082 118.611 43.0932 118.611H35.4162V112.221C30.6802 103.743 27.4882 87.6787 27.4882 69.2477C27.3935 59.0979 28.4856 48.9719 30.7422 39.0757C31.7362 34.6237 33.3075 30.3206 35.4162 26.2757L35.4162 19.8857H43.0882C48.1172 19.8857 52.5882 27.4027 55.4462 39.0757C57.6965 48.9728 58.7861 59.0984 58.6932 69.2477Z" fill="#323232"/>
<path d="M58.6932 69.2477C58.6932 96.5117 51.7082 118.611 43.0932 118.611H35.4162V112.221C30.6802 103.742 27.4882 87.6757 27.4882 69.2477C27.3935 59.0979 28.4856 48.9719 30.7422 39.0757H55.4422C57.6925 48.9728 58.7822 59.0984 58.6892 69.2477" fill="black"/>
<path d="M51.0222 69.2477C51.0222 96.5087 44.0352 118.608 35.4172 118.608C26.7992 118.608 19.8112 96.5077 19.8112 69.2477C19.8112 41.9877 26.7982 19.8877 35.4162 19.8877C44.0342 19.8877 51.0222 41.9877 51.0222 69.2477Z" fill="#323232"/>
<path d="M47.2502 69.2477C47.2502 93.8297 40.9502 113.755 33.1822 113.755H26.2622V107.995C21.9922 100.349 19.1142 85.8657 19.1142 69.2477C19.0286 60.095 20.0132 50.9637 22.0482 42.0397C22.9446 38.0263 24.3612 34.1472 26.2622 30.5007L26.2622 24.7397H33.1822C37.7152 24.7397 41.7422 31.5167 44.3242 42.0397C46.3525 50.962 47.3348 60.0901 47.2512 69.2397" fill="#323232"/>
<path d="M47.2502 69.2427C47.2502 93.8247 40.9502 113.75 33.1822 113.75H26.2622V107.99C21.9922 100.349 19.1142 85.8657 19.1142 69.2427C19.0292 60.0927 20.0139 50.964 22.0482 42.0426L44.3232 42.0427C46.3516 50.965 47.3338 60.0931 47.2502 69.2427Z" fill="black"/>
<path d="M40.3332 69.2477C40.3332 93.8267 34.0332 113.748 26.2622 113.748C18.4912 113.748 12.1922 93.8267 12.1922 69.2477C12.1922 44.6687 18.4922 24.7417 26.2622 24.7417C34.0322 24.7417 40.3332 44.6677 40.3332 69.2477Z" fill="#323232"/>
<path d="M36.5892 69.2477C36.5892 90.3007 31.1962 107.365 24.5412 107.365H18.6112V102.431C14.9542 95.8837 12.4892 83.4797 12.4892 69.2477C12.4162 61.4096 13.2596 53.5899 15.0022 45.9477C15.7698 42.5103 16.9831 39.1878 18.6112 36.0647L18.6112 31.1307H24.5372C28.4192 31.1307 31.8692 36.9307 34.0792 45.9487C35.8169 53.5916 36.6583 61.411 36.5862 69.2487" fill="#323232"/>
<path d="M36.5892 69.2487C36.5892 90.3017 31.1962 107.366 24.5412 107.366H18.6112V102.431C14.9542 95.8837 12.4892 83.4797 12.4892 69.2487C12.4162 61.4106 13.2596 53.5909 15.0022 45.9487H34.0792C35.818 53.5915 36.6603 61.4109 36.5892 69.2487Z" fill="black"/>
<path d="M30.6602 69.2477C30.6602 90.2977 25.2602 107.363 18.6092 107.363C11.9582 107.363 6.56021 90.2977 6.56021 69.2477C6.56021 48.1977 11.9602 31.1327 18.6102 31.1327C25.2602 31.1327 30.6602 48.1967 30.6602 69.2477Z" fill="#323232"/>
<path d="M27.4892 69.2477C27.4892 86.3477 23.1092 100.207 17.7032 100.207H12.8892V96.1997C9.91722 90.8817 7.91722 80.8067 7.91722 69.2477C7.85809 62.882 8.54308 56.5313 9.95822 50.3247C10.5817 47.5322 11.567 44.8331 12.8892 42.2957L12.8892 38.2887H17.7022C20.8552 38.2887 23.6572 43.0037 25.4522 50.3247C26.8632 56.5319 27.5465 62.8823 27.4882 69.2477" fill="#323232"/>
<path d="M27.4892 69.2477C27.4892 86.3477 23.1092 100.207 17.7032 100.207H12.8892V96.1997C9.91722 90.8817 7.91722 80.8067 7.91722 69.2477C7.8581 62.882 8.54309 56.5313 9.95823 50.3247L25.4522 50.3247C26.8632 56.5319 27.5465 62.8824 27.4882 69.2477" fill="black"/>
<path d="M22.6772 69.2477C22.6772 86.3477 18.2952 100.205 12.8892 100.205C7.48323 100.205 3.10223 86.3447 3.10223 69.2477C3.10223 52.1507 7.48423 38.2907 12.8892 38.2907C18.2942 38.2907 22.6772 52.1507 22.6772 69.2477Z" fill="#323232"/>
<path d="M18.6112 69.2477C18.6112 82.0157 15.3412 92.3647 11.3042 92.3647H7.71021V89.3717C5.49721 85.4017 3.99721 77.8797 3.99721 69.2477C3.95293 64.4944 4.4644 59.7522 5.52122 55.1177C5.98673 53.0325 6.72262 51.0172 7.71022 49.1227L7.71021 46.1307H11.3042C13.6592 46.1307 15.7502 49.6517 17.0912 55.1177C18.1447 59.7527 18.6548 64.4946 18.6112 69.2477Z" fill="#323232"/>
<path d="M18.6112 69.2477C18.6112 82.0157 15.3412 92.3647 11.3042 92.3647H7.71022V89.3717C5.49722 85.4017 3.99722 77.8787 3.99722 69.2477C3.95293 64.4944 4.4644 59.7522 5.52122 55.1177L17.0912 55.1177C18.1447 59.7527 18.6548 64.4947 18.6112 69.2477Z" fill="black"/>
<path d="M15.0182 69.2467C15.0182 82.0127 11.7462 92.3627 7.71022 92.3627C3.67422 92.3627 0.402222 82.0137 0.402222 69.2467C0.402222 56.4797 3.67422 46.1317 7.71022 46.1317C11.7462 46.1317 15.0182 56.4807 15.0182 69.2467Z" fill="#323232"/>
<path d="M10.6632 69.2497C10.6632 73.3907 9.60223 76.7497 8.29323 76.7497H7.12323V75.7787C6.23401 73.7213 5.82369 71.4888 5.92323 69.2497C5.90862 67.7073 6.07442 66.1685 6.41724 64.6647C6.56679 63.9883 6.80413 63.3345 7.12324 62.7197L7.12323 61.7497H8.29323C9.05723 61.7497 9.73523 62.8907 10.1702 64.6647C10.5119 66.1687 10.6774 67.7074 10.6632 69.2497Z" fill="#323232"/>
<path d="M10.6632 69.2477C10.6632 73.3887 9.60221 76.7477 8.29321 76.7477H7.12321V75.7747C6.23429 73.7179 5.82398 71.4861 5.92321 69.2477C5.90876 67.706 6.07455 66.1679 6.41721 64.6647L10.1702 64.6647C10.5118 66.1681 10.6772 67.7061 10.6632 69.2477Z" fill="black"/>
<path d="M9.49823 69.2497C9.49823 73.3907 8.43623 76.7497 7.12723 76.7497C5.81823 76.7497 4.75723 73.3887 4.75723 69.2497C4.75723 65.1107 5.81923 61.7497 7.12723 61.7497C8.43523 61.7497 9.49823 65.1067 9.49823 69.2497Z" fill="#323232"/>
<path d="M181.594 57.5537C180.431 57.543 179.279 57.3211 178.194 56.8987C177.106 56.4647 176.349 55.4635 176.227 54.2987C176.329 53.1364 176.97 52.0892 177.959 51.4697C177.349 50.505 177.012 49.3935 176.981 48.2527C176.986 47.0772 177.743 46.0369 178.86 45.6717C179.951 45.4942 181.048 45.9575 181.681 46.8637C182.275 47.7528 182.687 48.7501 182.894 49.7987C183.084 48.3987 183.948 46.7547 185.387 46.8357C186.223 46.9439 186.929 47.5078 187.219 48.2987C187.485 49.0696 187.602 49.8842 187.562 50.6987C187.81 49.5807 189.428 49.2337 190.422 49.8347C191.354 50.5331 191.987 51.558 192.194 52.7037C192.483 53.7786 192.706 54.8699 192.864 55.9717C193.009 56.7293 193.047 57.5034 192.979 58.2717C192.688 60.1726 191.291 61.7164 189.428 62.1947C192.388 68.9067 195.585 75.4787 198.545 82.1947C200.872 87.4717 203.218 92.8107 204.211 98.4757C205.742 107.473 203.804 116.716 198.787 124.341C202.714 128.169 203.896 133.825 203.987 139.251C204.115 141.938 203.76 144.626 202.939 147.189C201.59 150.984 198.739 154.101 195.571 156.655C185.514 164.599 172.46 167.693 159.906 165.109C157.331 156.04 158.646 147.056 160.906 137.909C161.87 134.003 163.055 129.876 166.118 127.203C164.956 124.874 164.869 122.155 165.879 119.757C166.406 118.336 167.553 117.235 168.994 116.767C164.733 113.66 163.763 107.261 165.494 102.345C167.225 97.4287 171.682 93.7097 176.711 92.0447C175.631 80.3447 180.446 68.8197 181.079 57.0907" fill="#FF9664"/>
<path d="M105.737 113.225C105.173 109.438 105.843 105.57 107.647 102.194C107.933 101.487 108.499 100.93 109.21 100.655C110.78 100.224 111.9 101.988 112.349 103.397C112.67 100.894 113.784 98.5605 115.527 96.7367C116.856 95.1663 118.798 94.247 120.855 94.2157C122.938 94.3237 124.883 96.2847 124.115 98.0157C125.508 95.3153 127.698 93.1088 130.388 91.6957C131.175 91.1926 132.109 90.9722 133.037 91.0707C134.032 91.3108 134.803 92.0973 135.022 93.0967C135.18 94.0355 135.136 94.997 134.894 95.9177C136.216 94.6644 138.117 94.2326 139.85 94.7917C141.492 95.4837 141.98 97.9077 140.4 98.7067C141.809 97.7517 144.02 98.5367 144.884 99.9147C145.613 101.345 145.745 103.007 145.252 104.535C144.157 109.36 140.7 114.219 135.324 115.349" fill="black"/>
<path d="M132.057 136.84C132.057 136.84 102.663 142.384 105.767 128.793C108.871 115.202 115.808 104.654 127.128 104.117C135.937 103.7 146.937 104.025 149.767 120.285C150.397 123.906 152.729 126.154 152.323 131.476L132.057 136.84Z" fill="#FE7644"/>
<path d="M185.039 182.744C185.339 186.76 185.462 190.752 185.762 194.768C181.893 194.268 177.97 194.814 174.093 195.258C162.168 196.625 150.154 197.048 138.162 196.524C136.327 196.453 134.528 195.99 132.885 195.168C132.493 188.704 132.354 182.595 132.147 176.131C124.278 176.827 116.348 176.11 108.732 174.013C108.27 173.877 107.809 173.734 107.355 173.576C100.29 171.385 94.0002 167.215 89.2322 161.559C84.2874 155.696 82.1968 147.943 83.5242 140.389C79.3836 135.054 77.3738 128.37 77.8852 121.637C78.3811 114.948 81.361 108.686 86.2392 104.083C82.4152 100.037 82.8082 93.7317 84.0152 88.3517C85.5867 81.3579 88.1156 74.6143 91.5302 68.3117C92.3762 66.7447 93.3072 65.1117 93.2682 63.3317C93.2222 61.5317 92.1912 59.9267 91.2832 58.3667C90.3752 56.8067 89.5522 55.0137 89.9522 53.2667C90.3522 51.5197 92.5752 50.1247 94.0832 51.1507C94.2941 49.637 94.858 48.1942 95.7292 46.9387C96.8912 45.2737 98.4752 47.4387 99.0602 48.3557C98.7752 47.7147 98.5832 46.3887 101.114 45.3937C104.576 44.0377 103.129 50.4187 103.129 50.4187C103.129 50.4187 107.652 50.0417 108.714 52.5887C109.776 55.1357 100.539 62.0047 100.539 62.0047C100.539 62.0047 109.285 88.5617 110.054 93.3607C110.823 98.1597 106.408 104.571 106.408 104.571C115.823 114.553 114.193 125.478 114.193 125.478C126.693 122.464 151.885 126.608 151.885 126.608C151.885 126.608 159 118.886 177.077 122.653C195.154 126.42 202.462 150.528 202.462 150.528C203.199 154.635 202.234 158.865 199.79 162.247L185.039 182.744Z" fill="#FF9664"/>
<path d="M165.67 236.363C163.286 249.108 157.707 261.04 149.455 271.041C148.941 271.786 148.219 272.364 147.378 272.701C146.393 272.877 145.377 272.743 144.47 272.318C129.916 267.139 115.539 261.277 100.447 257.887C98.0932 257.36 95.5392 256.908 93.4092 258.264C92.848 258.624 92.3511 259.076 91.9392 259.601C91.1931 260.536 90.7216 261.659 90.5772 262.847C90.1152 266.433 92.0002 269.621 94.2622 272.272C95.2255 273.151 95.8942 274.306 96.1772 275.58C96.3077 276.447 95.8881 277.304 95.1232 277.734C93.8232 278.389 92.4152 277.283 91.4232 276.265L86.1612 270.865C85.0992 269.889 84.2076 268.744 83.5232 267.475C82.8049 265.602 82.5797 263.576 82.8692 261.591C83.2788 256.091 84.3138 250.656 85.9542 245.391C86.1522 244.77 86.614 244.268 87.2163 244.019C87.8186 243.771 88.4999 243.8 89.0782 244.101C89.8702 244.514 90.6779 244.891 91.5012 245.231C98.7137 248.223 106.765 248.507 114.17 246.031C115.788 245.334 117.498 244.875 119.247 244.668C121.816 244.563 124.209 245.828 126.409 247.123C128.563 248.397 130.601 249.572 132.655 250.98C128.601 243.951 128.993 236.41 130.64 230.248C131.896 225.659 133.874 221.299 136.501 217.332C141.601 217.332 146.393 216.813 151.463 216.332C156.533 215.851 161.963 215.932 166.332 218.518L166.878 219.067C167.158 224.861 166.752 230.668 165.67 236.367" fill="#FE7644"/>
<path d="M165.67 236.363C148.247 237.539 137.139 233.847 130.639 230.246C131.895 225.657 133.874 221.298 136.501 217.332C141.601 217.332 146.393 216.813 151.463 216.332C156.533 215.851 161.963 215.932 166.332 218.518L166.878 219.067C167.158 224.861 166.752 230.668 165.67 236.367" fill="black"/>
<path d="M185.559 191.674C185.619 192.705 185.684 193.736 185.759 194.768C181.89 194.268 177.967 194.814 174.09 195.258C162.166 196.623 150.153 197.044 138.162 196.519C136.327 196.448 134.528 195.986 132.885 195.164C132.493 188.7 132.354 182.59 132.147 176.126C124.278 176.824 116.348 176.108 108.731 174.013C108.269 173.877 107.808 173.734 107.354 173.576C114.169 172.453 121.877 168.83 126.116 158.945C134.831 138.604 113.292 129.495 113.292 129.495C113.937 128.257 114.248 126.873 114.192 125.479C126.692 122.465 151.884 126.609 151.884 126.609C151.884 126.609 158.999 118.887 177.076 122.654C195.153 126.421 202.462 150.53 202.462 150.53C203.199 154.636 202.234 158.866 199.79 162.248L190.328 175.396C186.917 180.113 185.233 185.861 185.56 191.674" fill="#E6E6E6"/>
<path d="M193.37 253.548C192.097 256.109 191.305 258.882 191.032 261.73C190.933 263.436 191.253 265.14 191.963 266.695C192.44 267.749 193.15 268.682 194.04 269.422C195.311 270.359 196.727 271.082 198.232 271.562C200.984 272.495 203.785 273.272 206.624 273.89C207.392 274.053 207.908 274.776 207.814 275.555C207.72 276.335 207.047 276.913 206.262 276.89H176.2C175.696 276.899 175.229 276.625 174.992 276.18C174.755 275.734 174.788 275.194 175.077 274.781C175.947 273.54 176.729 272.24 177.417 270.891C180.218 265.526 181.652 259.553 181.593 253.502C181.37 247.815 179.547 242.277 179.239 236.581C178.899 232.214 179.516 227.825 181.047 223.721C171.493 232.679 156.909 235.767 144.147 232.377C142.199 231.855 140.289 231.198 138.431 230.412C137.369 229.959 136.323 229.47 135.3 228.943C129.654 226.018 124.649 221.996 120.577 217.112C115.863 211.603 115.432 203.617 119.524 197.632C119.545 197.597 119.568 197.564 119.593 197.532C121.745 194.26 125.03 191.899 128.817 190.904C133.671 189.849 138.609 191.846 143.155 193.812C143.958 194.227 144.838 194.474 145.74 194.535C146.513 194.48 147.272 194.3 147.986 194C151.366 192.833 154.851 192 158.393 191.512C164.677 190.672 171.045 190.688 177.324 191.559C187.139 192.859 196.639 195.876 205.839 199.485C208.293 200.449 210.877 201.564 212.354 203.712C214.492 206.823 213.639 211.005 212.431 214.561C207.777 228.249 199.2 240.304 193.37 253.548Z" fill="#FF9664"/>
<path d="M138.431 230.412C137.369 229.959 136.323 229.47 135.3 228.943C129.654 226.017 124.649 221.995 120.576 217.112C115.862 211.601 115.431 203.613 119.526 197.628L119.593 197.533C121.745 194.26 125.03 191.899 128.817 190.904C133.671 189.849 138.609 191.846 143.155 193.812C143.958 194.227 144.838 194.474 145.74 194.535C146.513 194.48 147.272 194.3 147.986 194C151.365 192.833 154.851 192 158.392 191.512C158.392 191.512 132.469 205.844 138.431 230.412Z" fill="#363636"/>
<path d="M206.262 276.888H176.201C175.697 276.898 175.229 276.623 174.992 276.178C174.755 275.732 174.788 275.191 175.078 274.778C175.947 273.539 176.728 272.242 177.416 270.895C181.047 271.536 187.416 271.709 191.962 266.695C192.439 267.749 193.15 268.682 194.039 269.422C195.31 270.359 196.726 271.082 198.23 271.562C200.982 272.494 203.783 273.272 206.622 273.89C207.39 274.053 207.906 274.776 207.812 275.555C207.718 276.335 207.045 276.913 206.26 276.89" fill="#363636"/>
<path d="M95.1242 277.731C93.8242 278.386 92.4162 277.279 91.4242 276.262L86.1622 270.862C85.1002 269.886 84.2086 268.741 83.5242 267.472C82.8059 265.599 82.5807 263.573 82.8702 261.588C83.2798 256.088 84.3148 250.653 85.9552 245.388C86.1537 244.767 86.6155 244.266 87.2175 244.018C87.8195 243.77 88.5003 243.8 89.0782 244.1C89.8702 244.514 90.6779 244.89 91.5012 245.23C91.1242 248.851 91.0782 254.368 93.4092 258.263C92.8486 258.622 92.3521 259.073 91.9402 259.597C91.1941 260.532 90.7226 261.655 90.5782 262.843C90.1162 266.429 92.0012 269.616 94.2632 272.268C95.2265 273.147 95.8952 274.302 96.1782 275.576C96.3084 276.443 95.8889 277.3 95.1242 277.73" fill="#363636"/>
<path d="M131.522 115.32C131.112 113.445 130.135 111.742 128.722 110.443C127.256 109.134 125.23 108.649 123.329 109.152C122.978 109.255 122.646 109.419 122.35 109.635C121.721 110.145 121.34 110.899 121.302 111.708C121.273 112.506 121.442 113.3 121.794 114.018C122.518 115.612 123.777 116.902 125.353 117.665C126.498 118.254 127.823 118.392 129.065 118.053C130.308 117.692 131.205 116.609 131.327 115.321" fill="#E6E6E6"/>
<path d="M142.417 115.631C140.772 114.492 139.405 112.997 138.417 111.258C138.216 110.938 138.078 110.582 138.01 110.211C137.965 109.269 138.547 108.41 139.438 108.104C140.33 107.816 141.295 107.86 142.156 108.228C144.382 109.087 145.926 111.135 146.14 113.511C146.283 114.366 145.958 115.231 145.287 115.781C144.697 116.075 144.023 116.158 143.378 116.017C142.705 115.933 142.038 115.812 141.378 115.655" fill="#E6E6E6"/>
<path d="M124.597 112.49L124.96 113.123C125.02 113.217 125.119 113.279 125.23 113.293C125.341 113.307 125.453 113.271 125.534 113.195L126.302 112.603C126.671 112.319 126.147 111.816 125.785 112.098L125.017 112.69L125.591 112.762L125.228 112.129C125.123 111.966 124.91 111.914 124.742 112.01C124.574 112.106 124.51 112.317 124.597 112.49Z" fill="black"/>
<path d="M141.138 110.373C140.951 110.695 141.006 111.102 141.272 111.363C141.537 111.624 141.946 111.672 142.264 111.48C142.682 111.271 142.313 110.654 141.895 110.862C141.757 110.9 141.715 110.858 141.769 110.734C141.985 110.326 141.355 109.964 141.138 110.373Z" fill="black"/>
<path d="M121.467 118.311C122.554 117.026 123.928 116.016 125.478 115.362C126.448 115.088 127.452 114.953 128.459 114.962C129.982 114.811 131.521 114.969 132.981 115.427C133.036 116.605 132.837 117.782 132.399 118.878C131.499 120.861 129.064 121.835 126.858 121.65C124.529 121.445 122.418 120.197 121.116 118.256" fill="#FE7644"/>
<path d="M128.401 109.182C127.033 109.846 125.507 110.118 123.993 109.969C122.447 110.023 120.906 109.779 119.452 109.25C119.474 109.372 119.519 109.197 119.623 109.124C122.273 107.364 125.702 107.3 128.415 108.959" fill="#FE7644"/>
<path d="M143.912 108.43C144.082 108.456 143.931 108.71 143.771 108.772C141.59 109.62 139.196 110.484 136.952 109.807C137.154 109.203 137.448 108.634 137.823 108.12C138.858 106.941 140.548 106.589 141.967 107.259C142.618 107.72 143.314 108.115 144.043 108.439" fill="#FE7644"/>
<path d="M146.895 113.113C145.859 112.351 144.565 112.026 143.291 112.208C142.024 112.397 140.882 113.078 140.115 114.105C140.641 115.118 141.497 115.922 142.542 116.383C143.632 116.798 144.851 116.693 145.853 116.098C146.839 115.484 147.361 114.34 147.18 113.193C147.173 113.103 147.128 113.02 147.056 112.966C146.978 112.921 146.848 112.977 146.866 113.066" fill="#FE7644"/>
<path d="M119.063 107.592C122.416 105.65 126.693 106.547 128.983 109.672C129.258 110.039 129.893 109.683 129.614 109.311C127.107 105.856 122.398 104.847 118.695 106.972C118.285 107.197 118.653 107.815 119.063 107.59" fill="black"/>
<path d="M131.063 106.7C131.903 107.475 132.508 108.471 132.809 109.574C132.878 109.746 133.065 109.84 133.244 109.791C133.423 109.743 133.537 109.567 133.509 109.384C133.175 108.161 132.506 107.057 131.579 106.193C131.24 105.876 130.723 106.381 131.063 106.7Z" fill="black"/>
<path d="M136.04 110.112C136.468 108.619 137.382 107.313 138.636 106.399C139.008 106.126 138.644 105.505 138.267 105.781C136.855 106.793 135.823 108.25 135.336 109.918C135.208 110.361 135.911 110.55 136.036 110.108" fill="black"/>
<path d="M134.919 110.553C137.252 111.784 139.324 113.457 141.019 115.479C141.223 115.675 141.351 115.937 141.381 116.219C141.366 116.418 141.294 116.609 141.174 116.77C140.483 117.812 139.345 118.471 138.097 118.553" stroke="#E44C1B" stroke-width="0.949"/>
<path d="M138.859 120.114C139.827 120.377 140.842 119.892 141.244 118.973C141.702 118.128 141.815 117.139 142.252 116.283C142.628 115.355 143.612 114.826 144.593 115.024C145.156 115.26 145.53 115.802 145.552 116.412C145.559 117.013 145.339 117.595 144.936 118.041C144.811 118.158 144.72 118.307 144.671 118.472C144.644 118.64 144.777 118.843 144.949 118.813C145.049 118.795 145.121 118.705 145.196 118.633C145.623 118.302 146.225 118.324 146.626 118.686C147 119.046 147.236 119.525 147.296 120.041C147.346 120.252 147.348 120.472 147.302 120.684C147.102 121.436 146.074 121.562 145.281 121.506C144.488 121.45 143.481 121.48 143.171 122.195C143.083 122.428 143.057 122.681 143.096 122.928C143.241 124.088 143.953 125.1 144.996 125.628" stroke="#E44C1B" stroke-width="0.949"/>
<path d="M124.567 121.887L129.867 122.239C130.336 122.271 130.334 121.556 129.867 121.524L124.567 121.17C124.098 121.14 124.1 121.855 124.567 121.887Z" fill="#E44C1B"/>
<path d="M122.526 117.179C122.73 116.846 123.085 116.636 123.475 116.617C123.942 116.59 123.945 115.875 123.475 115.902C122.829 115.926 122.237 116.27 121.895 116.819C121.647 117.212 122.28 117.572 122.526 117.18" fill="#E44C1B"/>
<path d="M145.832 112.876L146.562 113.063C146.746 113.099 146.926 112.989 146.977 112.809C147.028 112.629 146.932 112.44 146.756 112.376L146.026 112.189C145.843 112.152 145.662 112.262 145.611 112.442C145.56 112.622 145.657 112.811 145.832 112.876Z" fill="#E44C1B"/>
<path d="M121.468 110.376H122.198C122.396 110.376 122.556 110.215 122.556 110.018C122.556 109.82 122.396 109.66 122.198 109.66H121.468C121.271 109.66 121.11 109.82 121.11 110.018C121.11 110.215 121.271 110.376 121.468 110.376Z" fill="#E44C1B"/>
<path d="M136.44 118.015L138.081 117.3C138.509 117.113 138.139 116.5 137.713 116.682L136.072 117.398C135.643 117.584 136.014 118.198 136.44 118.015Z" fill="#E44C1B"/>
<path d="M199.436 207.773L203.536 213.3C203.824 213.689 204.491 213.314 204.2 212.92L200.101 207.392C199.812 207.004 199.145 207.38 199.436 207.773Z" fill="#E44C1B"/>
<path d="M181.727 91.2147C182.941 89.0749 183.649 86.6861 183.798 84.2307C183.829 83.7467 183.06 83.7487 183.029 84.2307C182.887 86.5521 182.214 88.8099 181.062 90.8307C180.957 91.0143 181.021 91.2483 181.205 91.3532C181.388 91.4582 181.622 91.3944 181.727 91.2107" fill="#E44C1B"/>
<path d="M185.725 91.4107L186.212 92.1797C186.472 92.5907 187.138 92.2127 186.877 91.7997L186.389 91.0317C186.129 90.6197 185.465 90.9977 185.725 91.4107Z" fill="#E44C1B"/>
<path d="M190.955 118.98C194.524 117.795 196.848 114.355 196.612 110.602C196.577 110.121 195.812 110.118 195.843 110.602C196.08 114.013 193.989 117.155 190.75 118.253C190.286 118.413 190.486 119.14 190.95 118.979" fill="#E44C1B"/>
<path d="M99.2072 130.338C97.955 133.362 96.2601 136.184 94.1782 138.711C93.8702 139.085 94.4112 139.621 94.7222 139.244C96.8863 136.618 98.6476 133.684 99.9482 130.54C100.135 130.088 99.3862 129.895 99.2072 130.338Z" fill="#E44C1B"/>
<path d="M102.46 131.77L104.768 132.77C105.216 132.97 105.608 132.316 105.156 132.12L102.848 131.119C102.401 130.924 102.008 131.573 102.46 131.77Z" fill="#E44C1B"/>
<path d="M99.9072 103.506C102.063 100.697 103.33 97.3079 103.544 93.7737C103.576 93.2897 102.806 93.2917 102.775 93.7737C102.56 97.1741 101.329 100.432 99.2432 103.126C98.9432 103.515 99.6142 103.891 99.9072 103.506Z" fill="#E44C1B"/>
<path d="M85.577 106.815C86.5588 108.36 88.4622 109.046 90.204 108.481C90.671 108.328 90.47 107.6 90.004 107.755C88.5957 108.233 87.043 107.688 86.242 106.435C85.983 106.023 85.318 106.401 85.577 106.815Z" fill="#E44C1B"/>
<path d="M86.1302 110.014L88.6952 110.514C89.1792 110.607 89.3862 109.881 88.8952 109.787L86.3352 109.287C85.8532 109.194 85.6442 109.919 86.1302 110.014Z" fill="#E44C1B"/>
<path d="M111.131 134.222C112.523 133.171 113.546 131.706 114.053 130.037C114.193 129.573 113.453 129.373 113.309 129.838C112.834 131.378 111.881 132.727 110.587 133.689C110.196 133.989 110.745 134.515 111.131 134.222Z" fill="#E44C1B"/>
<path d="M111.632 135.958C115.124 139.688 119.509 142.469 124.372 144.037C124.843 144.19 125.044 143.463 124.572 143.31C119.839 141.777 115.575 139.064 112.181 135.426C111.845 135.067 111.303 135.601 111.632 135.958Z" fill="#E44C1B"/>
<path d="M106.403 158.653C110.498 159.302 114.632 157.749 117.286 154.564C117.596 154.19 117.054 153.655 116.742 154.031C114.284 157.021 110.436 158.501 106.607 157.927C106.124 157.856 105.914 158.581 106.403 158.653Z" fill="#E44C1B"/>
<path d="M112.142 162.209C116.109 161.737 119.759 159.809 122.383 156.798C122.703 156.432 122.161 155.898 121.838 156.265C119.358 159.135 115.902 160.984 112.138 161.455C111.654 161.518 111.648 162.272 112.138 162.208" fill="#E44C1B"/>
<path d="M118.746 163.914L122.336 162.156C122.778 161.939 122.389 161.29 121.948 161.506L118.362 163.262C117.919 163.479 118.308 164.129 118.75 163.913" fill="#E44C1B"/>
<path d="M194.808 127.538C196.528 126.846 198.074 125.784 199.336 124.427C199.668 124.069 199.126 123.535 198.792 123.894C197.627 125.162 196.197 126.157 194.603 126.811C194.153 126.996 194.351 127.725 194.803 127.538" fill="#E44C1B"/>
<path d="M172.033 116.781C175.604 117.386 178.627 119.757 180.065 123.081C180.258 123.526 180.921 123.142 180.729 122.701C179.193 119.201 176.004 116.704 172.237 116.054C171.755 115.967 171.546 116.693 172.033 116.781Z" fill="#E44C1B"/>
<path d="M148.711 219.172C158.386 221.037 168.408 219.306 176.897 214.305C177.065 214.193 177.115 213.969 177.012 213.795C176.908 213.622 176.688 213.56 176.509 213.655C168.202 218.558 158.39 220.261 148.916 218.445C148.432 218.352 148.225 219.079 148.716 219.172" fill="#E44C1B"/>
<path d="M181.369 223.901L189.566 210.187C189.816 209.767 189.152 209.387 188.901 209.807L180.706 223.525C180.455 223.945 181.12 224.325 181.37 223.905" fill="#E44C1B"/>
<path d="M184.355 260.528C184.077 263.287 183.796 266.047 183.514 268.808C183.466 269.291 184.235 269.287 184.283 268.808C184.563 266.048 184.843 263.288 185.122 260.528C185.173 260.045 184.404 260.049 184.355 260.528Z" fill="#E44C1B"/>
<path d="M143.203 268.389C143.659 266.908 144.96 265.847 146.502 265.698C146.99 265.651 146.995 264.898 146.502 264.945C144.621 265.101 143.023 266.384 142.462 268.187C142.321 268.654 143.062 268.852 143.204 268.387" fill="#FF9664"/>
<path d="M92.6542 251.081C95.5103 251.062 98.3445 251.581 101.008 252.612C101.469 252.789 101.669 252.061 101.208 251.885C98.4799 250.833 95.578 250.305 92.6542 250.327C92.4538 250.337 92.2967 250.503 92.2967 250.703C92.2967 250.904 92.4538 251.07 92.6542 251.081Z" fill="#FF9664"/>
<path d="M132.794 251.44C134.655 255.425 137.915 258.588 141.955 260.326C142.403 260.526 142.795 259.872 142.343 259.675C138.421 257.998 135.256 254.932 133.455 251.065C133.255 250.62 132.589 251.002 132.794 251.44Z" fill="#FF9664"/>
<path d="M141.119 254.92C146.246 251.587 150.065 246.588 151.933 240.766C152.081 240.303 151.339 240.104 151.191 240.566C149.385 246.201 145.69 251.041 140.731 254.27C140.321 254.538 140.706 255.191 141.119 254.92Z" fill="#FF9664"/>
<path d="M147.227 116.998L160.599 97.5597L165.346 106.089L147.227 116.998Z" fill="#E6E6E6"/>
<path d="M162.693 99.3797C162.66 102.613 160.012 105.207 156.778 105.174C153.545 105.208 150.896 102.613 150.862 99.3797C150.896 96.1464 153.544 93.5524 156.777 93.5857C160.011 93.5524 162.659 96.1464 162.692 99.3797" fill="#E6E6E6"/>
<path d="M170.782 108.868C170.749 112.101 168.101 114.695 164.867 114.662C161.634 114.696 158.985 112.101 158.951 108.868C158.985 105.634 161.633 103.04 164.866 103.074C168.1 103.04 170.748 105.634 170.781 108.868" fill="#E6E6E6"/>
<path d="M167.71 101.258C166.3 104.144 163.362 105.643 161.149 104.606C158.936 103.569 158.286 100.389 159.696 97.5019C161.106 94.6149 164.043 93.1169 166.251 94.1529C168.459 95.1889 169.116 98.3709 167.706 101.253" fill="#E6E6E6"/>
<path d="M166.958 107.347C163.719 107.783 160.824 106.207 160.49 103.826C160.156 101.445 162.507 99.1617 165.744 98.7257C168.981 98.2897 171.876 99.8657 172.21 102.247C172.544 104.628 170.192 106.91 166.958 107.347Z" fill="#E6E6E6"/>
<path d="M127.985 145.236C137.893 148.66 148.594 149.063 158.731 146.393C158.922 146.33 159.03 146.128 158.976 145.935C158.923 145.741 158.727 145.623 158.531 145.667C148.527 148.299 137.965 147.896 128.19 144.509C127.722 144.347 127.522 145.075 127.985 145.236Z" fill="#999999"/>
<path d="M166.16 145.067C174.344 147.806 183.362 146.143 190.029 140.664C190.407 140.35 189.861 139.819 189.485 140.131C183.016 145.418 174.282 147.006 166.365 144.336C165.896 144.177 165.695 144.905 166.165 145.062" fill="#999999"/>
<path d="M153.299 129.148C155.823 130.743 157.859 133.004 159.182 135.681C159.4 136.116 160.063 135.735 159.847 135.301C158.457 132.511 156.326 130.158 153.688 128.498C153.272 128.236 152.885 128.885 153.299 129.148Z" fill="#999999"/>
<path d="M132.693 176.18L137.316 171.164C137.646 170.804 137.104 170.27 136.772 170.631L132.146 175.648C131.814 176.007 132.357 176.542 132.69 176.181" fill="#999999"/>
<path d="M134.28 176.45L139.154 175.204C139.345 175.141 139.453 174.939 139.399 174.746C139.346 174.552 139.15 174.434 138.954 174.478L134.075 175.724C133.885 175.787 133.777 175.988 133.83 176.182C133.883 176.375 134.079 176.493 134.275 176.45" fill="#999999"/>
<path d="M166.945 169.861C167.345 173.881 167.749 177.901 168.155 181.922C168.203 182.4 168.973 182.405 168.924 181.922C168.523 177.902 168.12 173.881 167.716 169.861C167.668 169.382 166.899 169.377 166.945 169.861Z" fill="#999999"/>
<path d="M161.375 177.328L173.934 176.725C174.426 176.702 174.434 175.948 173.934 175.972L161.375 176.571C160.882 176.594 160.875 177.348 161.375 177.324" fill="#999999"/>
<path d="M165.988 186.817H170.347C170.548 186.806 170.705 186.641 170.705 186.44C170.705 186.24 170.548 186.074 170.347 186.064H165.988C165.788 186.074 165.631 186.24 165.631 186.44C165.631 186.641 165.788 186.806 165.988 186.817Z" fill="#999999"/>
<path d="M88.2054 243.868C84.8054 243.341 84.6604 248.568 84.2334 250.72C83.3844 254.995 82.2154 259.745 82.4764 264.126C82.6854 267.626 84.6684 270.513 86.9684 273.075C89.0504 275.392 91.7304 278.685 95.2744 277.875C95.7564 277.764 95.5524 277.038 95.0744 277.149C91.7744 277.904 88.9904 274.261 87.1034 272.076C85.0174 269.666 83.3564 267.018 83.2394 263.779C83.2858 260.555 83.6648 257.344 84.3704 254.198C84.6394 252.604 85.3394 244.182 88.0004 244.594C88.4854 244.669 88.6934 243.944 88.2004 243.868" fill="#E6E6E6"/>
<path d="M174.55 275.625C174.75 277.602 177.642 277.142 179.031 277.152L189.589 277.24C192.941 277.268 196.289 277.31 199.644 277.24C202.354 277.183 205.467 277.403 208.002 276.325C208.455 276.132 208.064 275.483 207.614 275.674C205.24 276.683 202.194 276.433 199.644 276.486C197.033 276.54 194.421 276.524 191.81 276.503C189.059 276.481 186.308 276.458 183.556 276.434C182.443 276.428 175.462 276.987 175.322 275.625C175.272 275.148 174.502 275.142 174.55 275.625Z" fill="#E6E6E6"/>
<path d="M84.4302 251.752C85.5294 253.117 87.0251 254.109 88.7112 254.589C88.9084 254.636 89.1075 254.519 89.1625 254.324C89.2175 254.128 89.1089 253.925 88.9162 253.862C87.3592 253.413 85.981 252.489 84.9742 251.22C84.6692 250.839 84.1282 251.375 84.4302 251.752Z" fill="#E6E6E6"/>
<path d="M83.8992 255.038C85.255 256.213 86.8111 257.135 88.4932 257.759C88.9552 257.933 89.1552 257.205 88.6932 257.033C87.137 256.451 85.6976 255.595 84.4432 254.506C84.0752 254.184 83.5282 254.716 83.8992 255.038Z" fill="#E6E6E6"/>
<path d="M83.3752 258.055C84.4689 259.27 85.8192 260.226 87.3282 260.855C87.7782 261.043 88.1702 260.394 87.7162 260.204C86.267 259.604 84.9701 258.688 83.9202 257.523C83.5912 257.159 83.0492 257.693 83.3752 258.055Z" fill="#E6E6E6"/>
<path d="M183.778 277.179C184.642 276.116 185.406 274.974 186.058 273.77C186.289 273.341 185.625 272.96 185.394 273.39C184.777 274.54 184.054 275.63 183.234 276.646C182.934 277.022 183.47 277.558 183.778 277.179Z" fill="#E6E6E6"/>
<path d="M186.704 276.795C187.807 275.706 188.658 274.389 189.197 272.936C189.367 272.479 188.624 272.279 188.455 272.735C187.957 274.064 187.174 275.268 186.16 276.262C185.811 276.607 186.355 277.14 186.704 276.795Z" fill="#E6E6E6"/>
<path d="M190.125 277.131C191.22 275.923 192.037 274.489 192.518 272.932C192.662 272.468 191.92 272.268 191.78 272.732C191.34 274.166 190.588 275.486 189.58 276.598C189.254 276.96 189.797 277.498 190.125 277.131Z" fill="#E6E6E6"/>
<path d="M90.2712 258.202C91.1672 260.127 90.7132 262.575 91.3232 264.609C91.6302 265.633 92.7072 267.195 94.0072 266.273C95.8782 264.947 92.0002 259.976 90.8752 259.002C90.5062 258.682 89.9602 259.213 90.3312 259.535C91.1112 260.21 94.6822 265.073 93.4222 265.69C91.7232 266.527 91.4192 258.862 90.9352 257.827C90.7302 257.382 90.0672 257.764 90.2712 258.202Z" fill="#363636"/>
<path d="M90.6662 259.594C92.1662 260.263 95.6312 265.619 97.5992 263.336C99.7522 260.839 92.3952 259.152 91.3882 257.997C91.0662 257.628 90.5242 258.163 90.8442 258.53C91.5442 259.33 98.2202 261.696 96.9682 262.882C95.6132 264.164 92.2502 259.473 91.0542 258.943C90.6062 258.744 90.2152 259.393 90.6662 259.594Z" fill="#363636"/>
<path d="M192.67 269.58C194.622 267.759 192.951 264.917 194.061 262.825C194.584 261.84 195.294 262.019 195.351 263.065C195.384 263.617 195.326 264.17 195.18 264.704C194.719 266.304 193.392 267.569 192.78 269.124C192.644 269.467 193.186 269.779 193.423 269.49C194.15 268.6 197.039 264.684 197.943 266.853C198.918 269.188 194.618 269.053 193.322 269.453C193.132 269.516 193.024 269.717 193.077 269.911C193.13 270.104 193.326 270.222 193.522 270.179C195.432 269.587 200.26 269.633 198.529 266.251C197.098 263.448 193.808 267.818 192.878 268.958L193.52 269.324C194.288 267.382 195.936 265.941 196.102 263.785C196.16 263.037 196.218 261.511 195.239 261.251C194.143 260.957 193.328 262.346 193.12 263.171C192.664 264.986 193.651 267.624 192.126 269.047C191.767 269.382 192.311 269.914 192.67 269.58Z" fill="#363636"/>
<path d="M93.4232 66.1497C96.2499 66.1404 99.0705 66.0147 101.885 65.7727C104.82 65.5177 104.848 60.9947 101.885 61.2527C99.0692 61.4974 96.2485 61.6227 93.4232 61.6287C90.4542 61.6387 90.4482 66.1597 93.4232 66.1497Z" fill="#AC7B6B"/>
<path d="M178.213 61.2777C181.591 64.1027 185.782 64.1877 189.851 65.3777C192.703 66.2157 193.921 61.8537 191.079 61.0197C187.99 60.1167 184.03 60.2167 181.476 58.0807C179.229 56.2017 175.95 59.3847 178.213 61.2777Z" fill="#AC7B6B"/>
<path d="M78.5822 140.354C78.5822 140.354 83.4402 187.425 39.2112 223.489" stroke="#E6E6E6" stroke-linecap="round"/>
<path d="M100.582 166.006C100.582 166.006 99.9102 194.046 67.8212 226.343" stroke="#E6E6E6" stroke-linecap="round"/>
<path d="M219.897 132.331C220.69 142.327 217.839 152.273 211.869 160.331" stroke="#E6E6E6" stroke-linecap="round"/>
<path d="M237.024 137.205C237.024 137.205 238.435 169.158 215.959 194.805" stroke="#E6E6E6" stroke-linecap="round"/>
<path d="M257.081 134.26C257.081 134.26 260.568 159.885 239.328 184.106" stroke="#E6E6E6" stroke-linecap="round"/>
<path d="M28.9742 8.14069C30.8342 5.18569 32.9372 3.10069 36.7192 3.43069C37.2122 3.47369 37.2092 2.71969 36.7192 2.67769C32.6632 2.32369 30.3132 4.57769 28.3112 7.76069C28.0502 8.17469 28.7102 8.55369 28.9742 8.14069Z" fill="#323232"/>
<path d="M27.8592 5.41367C28.8532 2.82267 31.0912 1.44067 33.7442 0.780672C33.9309 0.714401 34.0348 0.515209 33.9822 0.32418C33.9297 0.133151 33.7385 0.0151134 33.5442 0.0536715C30.6022 0.780672 28.2092 2.36467 27.1172 5.21367C26.9432 5.66767 27.6852 5.86467 27.8592 5.41367Z" fill="#323232"/>
<path d="M247.334 3.98167C249.487 4.6709 251.131 6.42334 251.681 8.61567C251.824 9.07867 252.567 8.88167 252.423 8.41567C251.799 5.96602 249.951 4.01396 247.539 3.25567C247.343 3.21214 247.147 3.32996 247.094 3.52358C247.041 3.71721 247.149 3.91866 247.339 3.98167" fill="#323232"/>
<path d="M249.934 2.06183C251.766 2.95118 253.209 4.48093 253.989 6.36183C254.161 6.81183 254.905 6.61683 254.73 6.16183C253.894 4.0905 252.325 2.39912 250.322 1.40983C249.886 1.18083 249.498 1.83083 249.934 2.06183Z" fill="#323232"/>
<path d="M86.1021 48.5455C86.6551 45.2595 89.1051 42.9835 92.0791 41.6135C92.5271 41.4075 92.1371 40.7575 91.6911 40.9635C88.5551 42.4085 85.9391 44.8855 85.3611 48.3445C85.2821 48.8195 86.0231 49.0235 86.1031 48.5445" fill="#323232"/>
<path d="M84.5252 44.1147C85.7252 42.3047 87.7752 41.3427 89.4652 40.0467C89.8542 39.7467 89.3072 39.2187 88.9202 39.5137C87.1602 40.8637 85.1082 41.8457 83.8602 43.7337C83.5912 44.1417 84.2602 44.5217 84.5252 44.1147Z" fill="#323232"/>
<path d="M186.987 42.7817C190.068 41.5257 192.541 44.9827 195.728 44.6787C196.216 44.6317 196.221 43.8787 195.728 43.9257C192.419 44.2417 190.128 40.6907 186.783 42.0557C186.328 42.2417 186.528 42.9677 186.987 42.7817Z" fill="#323232"/>
<path d="M188.424 40.1577C190.828 39.9517 192.955 41.3117 195.347 41.2827C195.548 41.2724 195.705 41.1069 195.705 40.9062C195.705 40.7055 195.548 40.54 195.347 40.5297C192.955 40.5587 190.841 39.1967 188.424 39.4037C187.935 39.4457 187.93 40.2047 188.424 40.1577Z" fill="#323232"/>
<path d="M102.936 50.0917C101.154 50.4857 99.0122 51.0857 97.8762 52.6087C96.8312 54.0087 97.2852 55.7087 97.9092 57.1897C98.3472 58.2297 99.4242 59.8107 100.746 58.8507C101.81 58.0807 101.565 56.2217 101.354 55.1267C101.264 54.6507 100.522 54.8517 100.612 55.3267C100.73 55.9487 101.112 59.1557 99.2652 58.0427C98.5692 57.6197 98.2352 55.9807 98.0892 55.2517C97.5042 52.3357 100.873 51.3197 103.141 50.8177C103.624 50.7117 103.419 49.9847 102.941 50.0917" fill="#E44C1B"/>
<path d="M100.794 55.4258C101.861 55.8718 103.04 55.9728 104.167 55.7148C104.653 55.6228 104.448 54.8968 103.967 54.9878C103.039 55.205 102.066 55.1306 101.182 54.7748C100.735 54.5768 100.343 55.2248 100.794 55.4258Z" fill="#E44C1B"/>
<path d="M92.2962 59.1047C96.1292 59.6437 95.4522 53.8097 94.8172 51.6097C94.7521 51.4171 94.5485 51.3084 94.3523 51.3613C94.1561 51.4142 94.0347 51.6105 94.0752 51.8097C94.5172 53.3437 95.3872 58.7837 92.5012 58.3777C92.0162 58.3087 91.8072 59.0357 92.3012 59.1037" fill="#E44C1B"/>
<path d="M94.8602 56.7187C95.6184 57.1623 96.5488 57.195 97.3362 56.8057C97.7452 56.5387 97.3612 55.8857 96.9482 56.1547C96.3442 56.5497 95.6682 56.2257 95.0642 55.9927C94.6022 55.8147 94.4022 56.5427 94.8602 56.7187Z" fill="#E44C1B"/>
<path d="M98.4372 48.5447C98.7671 49.5217 98.8934 50.556 98.8082 51.5837C98.7662 52.0667 99.5352 52.0637 99.5772 51.5837C99.6652 50.4877 99.5291 49.3853 99.1772 48.3437C99.0262 47.8837 98.2832 48.0837 98.4372 48.5447Z" fill="#E44C1B"/>
<path d="M178.105 51.7837C179.181 51.2008 180.404 50.9486 181.622 51.0587C182.917 51.2636 183.945 52.2554 184.197 53.5417C184.545 54.5487 185.113 56.2497 183.897 56.9157C182.565 57.6427 182.039 55.7157 181.445 54.9417C181.362 54.8173 181.216 54.7506 181.067 54.7697C180.919 54.7888 180.794 54.8903 180.745 55.0317C180.54 55.538 180.251 56.0059 179.89 56.4157C179.59 56.8037 180.26 57.1797 180.554 56.7957C180.951 56.3303 181.267 55.8016 181.488 55.2317L180.788 55.3217C181.53 56.2917 181.983 58.0717 183.56 57.8217C185.284 57.5467 185.571 55.8897 185.275 54.4777C184.943 52.9257 184.305 51.1887 182.693 50.5587C181.026 50.0579 179.226 50.2659 177.717 51.1337C177.275 51.3507 177.664 52.0017 178.105 51.7837Z" fill="#E44C1B"/>
<path d="M182.27 49.8267V50.5797C182.281 50.7844 182.45 50.9451 182.655 50.9451C182.86 50.9451 183.029 50.7844 183.039 50.5797L183.039 49.8267C183.029 49.6219 182.86 49.4613 182.655 49.4613C182.45 49.4613 182.281 49.6219 182.27 49.8267Z" fill="#E44C1B"/>
<path d="M187.142 51.0817C187.119 53.4747 186.595 56.6587 188.631 58.4647C190.117 59.7827 191.674 59.1347 192.384 57.4597C192.574 57.0127 191.83 56.8177 191.643 57.2597C190.727 59.4177 188.785 58.0717 188.218 56.4777C187.613 54.7757 187.895 52.8467 187.911 51.0817C187.901 50.8769 187.732 50.7163 187.527 50.7163C187.322 50.7163 187.153 50.8769 187.142 51.0817Z" fill="#E44C1B"/>
<path d="M184.05 57.3757C184.573 57.9244 185.308 58.2179 186.065 58.1795C186.822 58.1411 187.524 57.7745 187.988 57.1757C188.24 56.7577 187.575 56.3757 187.323 56.7957C186.984 57.1926 186.491 57.425 185.969 57.434C185.447 57.443 184.946 57.2277 184.593 56.8427C184.268 56.4767 183.726 57.0127 184.05 57.3757Z" fill="#E44C1B"/>
<path d="M221.063 222.668C222.543 220.33 223.598 217.749 224.178 215.044C224.296 214.575 223.555 214.375 223.434 214.844C222.871 217.485 221.843 220.006 220.398 222.288C220.125 222.694 220.791 223.072 221.063 222.668Z" fill="#E44C1B"/>
<path d="M224.465 223.874C225.668 222.552 226.498 220.935 226.871 219.188C226.948 218.715 226.206 218.509 226.13 218.988C225.793 220.609 225.03 222.112 223.92 223.342C223.62 223.717 224.156 224.253 224.465 223.874Z" fill="#E44C1B"/>
<path d="M110.399 215.512C111.364 217.685 112.364 219.744 114.306 221.234C114.691 221.534 115.24 221 114.851 220.701C112.952 219.249 111.999 217.247 111.064 215.134C110.864 214.688 110.205 215.07 110.399 215.512Z" fill="#E44C1B"/>
<path d="M109.207 218.058C109.929 219.861 111.202 221.39 112.845 222.427C113.253 222.703 113.638 222.051 113.233 221.777C111.755 220.846 110.606 219.475 109.948 217.857C109.782 217.401 109.038 217.601 109.207 218.058Z" fill="#E44C1B"/>
<path d="M117.194 81.4077C118.425 83.7645 119.359 86.2649 119.975 88.8517C120.057 89.3297 120.799 89.1267 120.717 88.6517C120.258 85.9657 118.958 83.5027 117.858 81.0307C117.658 80.5847 116.998 80.9677 117.194 81.4077Z" fill="#E6E6E6"/>
<path d="M128.423 78.7067C128.215 81.3067 128.645 83.8927 128.679 86.4917C128.69 86.6964 128.859 86.8571 129.064 86.8571C129.269 86.8571 129.438 86.6964 129.448 86.4917C129.414 83.8917 128.985 81.3077 129.193 78.7067C129.231 78.2227 128.462 78.2247 128.423 78.7067Z" fill="#E6E6E6"/>
<path d="M138.628 88.9417C140.276 86.7244 141.734 84.372 142.987 81.9097C143.219 81.4827 142.555 81.1017 142.322 81.5297C141.07 83.9917 139.612 86.3437 137.964 88.5607C137.664 88.9447 138.33 89.3207 138.628 88.9417Z" fill="#E6E6E6"/>
<path d="M145.49 93.5389C147.015 92.3209 148.398 90.9249 150.028 89.8299C150.433 89.5579 150.05 88.9049 149.64 89.1799C147.955 90.3139 146.526 91.7469 144.946 93.0059C144.561 93.3119 145.109 93.8419 145.49 93.5389Z" fill="#E6E6E6"/>
<path d="M111.435 88.8259C112.866 89.7776 114.212 90.8502 115.459 92.0319C115.808 92.3769 116.352 91.8439 116.003 91.4989C114.707 90.2734 113.309 89.1613 111.823 88.1749C111.419 87.8929 111.035 88.5459 111.435 88.8259Z" fill="#E6E6E6"/>
<path d="M131.615 116.582C131.356 115.61 129.176 115.326 126.746 115.947C124.316 116.568 122.555 117.86 122.814 118.831C123.073 119.802 125.252 120.087 127.683 119.466C130.114 118.845 131.874 117.554 131.615 116.582Z" fill="#E44C1B"/>
<path d="M145.499 113.031C145.37 112.553 144.288 112.408 143.081 112.717C141.874 113.026 141 113.667 141.129 114.153C141.258 114.639 142.341 114.777 143.547 114.468C144.753 114.159 145.627 113.514 145.499 113.031Z" fill="#E44C1B"/>
<path d="M142.601 199.313C143.39 197.56 144.93 196.319 146.064 194.793C146.355 194.4 145.688 194.024 145.401 194.412C144.263 195.942 142.73 197.172 141.937 198.933C141.737 199.372 142.402 199.756 142.602 199.313" fill="black"/>
<path d="M141.003 196.753C141.873 196.009 142.854 195.406 143.91 194.967C144.359 194.782 144.162 194.052 143.71 194.24C142.529 194.724 141.432 195.393 140.459 196.22C140.084 196.538 140.63 197.069 141.003 196.753Z" fill="black"/>
<path d="M49.5682 137.163C49.5682 137.163 46.5432 174.487 20.9762 194.848" stroke="#E6E6E6" stroke-width="0.731" stroke-linecap="round"/>
<path d="M204.449 204.773C206.212 204.906 207.268 206.873 208.097 208.173C209.668 210.634 213.662 208.367 212.082 205.891C210.241 203.005 208.141 200.531 204.449 200.253C203.191 200.248 202.163 201.255 202.141 202.513C202.178 203.764 203.198 204.762 204.449 204.773Z" fill="#FDCCB1"/>
<path d="M167.013 197.239C172.803 197.167 178.821 196.09 184.313 198.439C187.013 199.592 189.361 195.698 186.642 194.539C180.224 191.791 173.814 192.632 167.013 192.719C164.045 192.756 164.037 197.276 167.013 197.239Z" fill="#FDCCB1"/>
<path d="M103.843 112.199C105.63 114.225 108.511 118.192 107.072 121.012C105.75 123.606 109.727 125.898 111.057 123.293C113.6 118.314 110.466 112.81 107.107 109.002C105.162 106.797 101.907 110.002 103.843 112.202" fill="#FDCCB1"/>
<path d="M188.69 113.054C192.842 110.612 194.355 105.576 193.935 101.054C193.669 98.1807 189.051 98.1537 189.32 101.054C189.586 103.92 189.115 107.528 186.361 109.148C183.817 110.648 186.135 114.554 188.69 113.048" fill="#FDCCB1"/>
<path d="M191.628 124.412C192.763 124.54 193.906 124.251 194.844 123.601C195.348 123.293 195.725 122.813 195.905 122.251C196.064 121.663 195.98 121.035 195.672 120.51C195.005 119.442 193.619 119.085 192.519 119.698C192.428 119.766 192.339 119.822 192.246 119.877C192.058 119.987 191.882 119.967 192.404 119.84C192.204 119.889 192.012 119.957 191.804 119.988L192.419 119.907C192.156 119.931 191.89 119.926 191.628 119.892C191.018 119.89 190.432 120.127 189.996 120.554C189.568 120.976 189.324 121.55 189.319 122.152C189.323 122.753 189.566 123.329 189.994 123.752C190.451 124.146 191.024 124.378 191.626 124.413" fill="#FDCCB1"/>
<path d="M90.6962 138.822C92.4507 137.397 93.7306 135.473 94.3662 133.304C95.2522 130.52 90.7982 129.329 89.9162 132.104C89.4829 133.51 88.6133 134.742 87.4332 135.622C87.0035 136.043 86.7613 136.62 86.7613 137.222C86.7613 137.824 87.0035 138.4 87.4332 138.822C88.3537 139.675 89.7757 139.675 90.6962 138.822Z" fill="#FDCCB1"/>
<path d="M168.653 214.738C170.32 213.963 172.032 213.292 173.781 212.729C176.675 212.08 175.45 207.721 172.554 208.371C170.807 208.933 169.096 209.604 167.431 210.379C166.231 210.718 165.516 211.948 165.814 213.159C166.178 214.366 167.436 215.065 168.653 214.738Z" fill="#FDCCB1"/>
<path d="M188.726 86.5897C188.896 86.0883 189.067 85.586 189.239 85.0827C189.394 84.5002 189.312 83.88 189.009 83.3585C188.707 82.8371 188.21 82.4572 187.627 82.3027C186.412 81.9946 185.167 82.6869 184.788 83.8817C184.618 84.3857 184.447 84.888 184.275 85.3887C183.953 86.6015 184.674 87.8463 185.887 88.1687C187.102 88.4767 188.347 87.7845 188.726 86.5897Z" fill="#FDCCB1"/>
<path d="M100.293 96.6727C100.793 95.6946 101.075 94.6201 101.121 93.5227C101.1 92.2626 100.069 91.2539 98.8092 91.2607C97.5573 91.2725 96.5382 92.2712 96.5012 93.5227C96.4932 93.7087 96.4792 93.8927 96.4552 94.0767C96.4819 93.8767 96.5092 93.6767 96.5372 93.4767C96.5019 93.7052 96.4511 93.931 96.3852 94.1527C96.3582 94.2407 96.3262 94.3287 96.2972 94.4167C96.1402 94.8857 96.5232 93.9437 96.3032 94.3927C96.0067 94.9218 95.9233 95.5442 96.0702 96.1327C96.2375 96.7022 96.6174 97.1856 97.1312 97.4827C98.2324 98.1004 99.6247 97.7438 100.293 96.6727Z" fill="#FDCCB1"/>
<path d="M255.559 39.0757C255.559 39.0757 263.108 88.6757 249.744 118.306" stroke="#323232" stroke-linecap="round"/>
<path d="M260.756 43.5007C260.756 43.5007 267.953 90.4407 253.714 115.211" stroke="#323232" stroke-linecap="round"/>
<path d="M266.001 47.4067C266.001 47.4067 272.477 86.7067 261.092 108.822" stroke="#323232" stroke-linecap="round"/>
<path d="M271.554 51.7817C271.554 51.7817 276.305 82.8077 267.877 101.664" stroke="#323232" stroke-linecap="round"/>
<path d="M276.588 56.5747C276.588 56.5747 279.455 78.8327 274.324 93.5857" stroke="#323232" stroke-linecap="round"/>
</svg>
