<svg width="229" height="251" viewBox="0 0 229 251" fill="none" xmlns="http://www.w3.org/2000/svg">
<rect opacity="0.05" y="226" width="266" height="2" fill="white"/>
<rect opacity="0.05" y="232" width="266" height="2" fill="white"/>
<rect opacity="0.05" y="249" width="266" height="2" fill="white"/>
<g opacity="0.5">
<path d="M223.251 72.7858C221.976 71.5947 220.223 71.8071 219.138 73.2844C217.958 74.9607 218.014 77.5575 219.265 79.1438L223.196 84.2438C223.453 84.5786 223.869 84.5786 224.125 84.2438L228.033 79.1135C229.277 77.519 229.323 74.9224 228.137 73.2542C227.048 71.7842 225.296 71.583 224.027 72.782C223.796 73.0001 223.484 73.0016 223.251 72.7858Z" fill="#F55F44"/>
<path d="M223.688 84.0435C223.597 84.2665 223.597 84.5346 223.688 84.7575C223.744 84.8648 223.795 84.9757 223.842 85.09C223.943 85.4187 223.766 85.7775 223.587 86.0458C223.474 86.2158 223.349 86.4424 223.422 86.6502C223.457 86.725 223.502 86.7914 223.555 86.8467C223.799 87.1534 223.903 87.6048 223.828 88.0362C223.752 88.4677 223.509 88.8162 223.187 88.9547" stroke="#F55F44"/>
</g>
<g opacity="0.5">
<path d="M27.2511 97.7858C25.9755 96.5947 24.2232 96.8071 23.1376 98.2844C21.958 99.9607 22.0144 102.558 23.265 104.144L27.1961 109.244C27.4527 109.579 27.8687 109.579 28.1253 109.244L32.0332 104.114C33.2771 102.519 33.3232 99.9224 32.1374 98.2542C31.048 96.7842 29.2963 96.583 28.0269 97.782C27.7956 98.0001 27.4836 98.0016 27.2511 97.7858Z" fill="#794BD8"/>
<path d="M27.6882 109.044C27.5966 109.267 27.5966 109.535 27.6882 109.758C27.7437 109.865 27.795 109.976 27.8416 110.09C27.9429 110.419 27.7663 110.778 27.5869 111.046C27.474 111.216 27.3495 111.442 27.4219 111.65C27.4574 111.725 27.5025 111.791 27.555 111.847C27.7994 112.153 27.9029 112.605 27.8276 113.036C27.7524 113.468 27.5094 113.816 27.1874 113.955" stroke="#F55F44"/>
</g>
<g opacity="0.5">
<path d="M156.251 0.785772C154.976 -0.405346 153.223 -0.192917 152.138 1.28444C150.958 2.96066 151.014 5.55753 152.265 7.14377L156.196 12.2438C156.453 12.5786 156.869 12.5786 157.125 12.2438L161.033 7.11355C162.277 5.519 162.323 2.92237 161.137 1.25422C160.048 -0.215799 158.296 -0.417043 157.027 0.781994C156.796 1.00005 156.484 1.00157 156.251 0.785772Z" fill="#794BD8"/>
<path d="M156.688 12.0435C156.597 12.2665 156.597 12.5346 156.688 12.7575C156.744 12.8648 156.795 12.9757 156.842 13.09C156.943 13.4187 156.766 13.7775 156.587 14.0458C156.474 14.2158 156.349 14.4235 156.422 14.6502C156.457 14.725 156.502 14.7914 156.555 14.8467C156.799 15.1534 156.903 15.6048 156.828 16.0362C156.752 16.4677 156.509 16.8162 156.187 16.9547" stroke="#F55F44"/>
</g>
<g opacity="0.5">
<rect x="188.647" y="48.04" width="1" height="3.77778" fill="#47E6B1"/>
<path d="M191.833 54.0956V54.7622H187.833V54.0956H191.833Z" fill="#47E6B1"/>
</g>
<g opacity="0.5">
<rect x="72.647" y="139.04" width="1" height="3.77778" fill="#47E6B1"/>
<path d="M75.8333 145.096V145.762H71.8333V145.096H75.8333Z" fill="#47E6B1"/>
</g>
<g opacity="0.5">
<rect x="45.647" y="44.04" width="1" height="3.77778" fill="#47E6B1"/>
<path d="M48.8333 50.0956V50.7622H44.8333V50.0956H48.8333Z" fill="#47E6B1"/>
</g>
<g opacity="0.5">
<rect x="228.647" y="132.04" width="1" height="3.77778" fill="#47E6B1"/>
<path d="M231.833 138.096V138.762H227.833V138.096H231.833Z" fill="#47E6B1"/>
</g>
<path opacity="0.5" d="M186.683 87.048C186.175 86.8198 185.918 86.2517 186.083 85.7225C186.098 85.6834 186.106 85.642 186.107 85.6001C186.13 85.351 185.981 85.1177 185.745 85.0327C185.508 84.9477 185.244 85.0325 185.102 85.2389C185.078 85.2726 185.058 85.3086 185.042 85.3463C184.813 85.851 184.242 86.107 183.71 85.9434C183.67 85.9309 183.629 85.9229 183.587 85.9195C183.344 85.9039 183.119 86.0496 183.034 86.2777C182.95 86.5059 183.026 86.7621 183.222 86.9077C183.255 86.9316 183.291 86.9516 183.329 86.9674C183.838 87.1945 184.095 87.7636 183.929 88.2929C183.917 88.3328 183.909 88.3738 183.905 88.4153C183.89 88.6579 184.036 88.882 184.265 88.9661C184.494 89.0502 184.752 88.9743 184.898 88.7795C184.923 88.7464 184.943 88.7103 184.958 88.672C185.183 88.1611 185.756 87.8982 186.293 88.06C186.332 88.0726 186.372 88.0806 186.413 88.0839C186.656 88.0996 186.881 87.9539 186.966 87.7257C187.05 87.4976 186.974 87.2413 186.778 87.0958C186.748 87.0763 186.716 87.0603 186.683 87.048Z" fill="#4D8AF0"/>
<path opacity="0.5" d="M61.6688 76.048C61.1636 75.8198 60.9075 75.2517 61.0712 74.7225C61.0863 74.6834 61.0944 74.642 61.0951 74.6001C61.1182 74.351 60.9699 74.1177 60.7344 74.0327C60.4989 73.9477 60.2357 74.0325 60.0941 74.2389C60.0707 74.2726 60.0507 74.3086 60.0344 74.3463C59.806 74.851 59.2373 75.107 58.7077 74.9434C58.6679 74.9309 58.6268 74.9229 58.5852 74.9195C58.3424 74.9039 58.1181 75.0496 58.034 75.2777C57.9498 75.5059 58.0258 75.7621 58.2207 75.9077C58.2542 75.9316 58.2902 75.9516 58.3282 75.9674C58.8402 76.1892 59.1039 76.7597 58.9408 77.2929C58.9285 77.3328 58.9205 77.3738 58.9169 77.4153C58.9012 77.6579 59.047 77.882 59.2754 77.9661C59.5037 78.0502 59.7602 77.9743 59.9059 77.7795C59.9304 77.7464 59.9505 77.7103 59.9656 77.672C60.1898 77.1611 60.7609 76.8982 61.2953 77.06C61.3341 77.0726 61.3742 77.0806 61.4148 77.0839C61.6576 77.0996 61.8819 76.9539 61.966 76.7257C62.0502 76.4976 61.9742 76.2413 61.7793 76.0958C61.7447 76.0752 61.7075 76.0591 61.6688 76.048Z" fill="#4D8AF0"/>
<path opacity="0.5" d="M111.669 8.04039C111.164 7.81308 110.907 7.24702 111.071 6.71981C111.086 6.68088 111.094 6.6396 111.095 6.59786C111.118 6.34967 110.97 6.11727 110.734 6.03259C110.499 5.94792 110.236 6.03236 110.094 6.23798C110.071 6.27161 110.051 6.30748 110.034 6.34505C109.811 6.85369 109.241 7.11571 108.708 6.95478C108.668 6.94229 108.627 6.93431 108.585 6.93098C108.342 6.91539 108.118 7.06057 108.034 7.28785C107.95 7.51513 108.026 7.77045 108.221 7.91547C108.254 7.93928 108.29 7.95924 108.328 7.97495C108.84 8.19588 109.104 8.76432 108.941 9.29553C108.929 9.33523 108.921 9.37611 108.917 9.41747C108.901 9.6592 109.047 9.88242 109.275 9.96619C109.504 10.05 109.76 9.97436 109.906 9.78033C109.93 9.74739 109.95 9.71139 109.966 9.67326C110.19 9.16419 110.761 8.9023 111.295 9.06353C111.334 9.07602 111.374 9.08401 111.415 9.08733C111.658 9.10292 111.882 8.95775 111.966 8.73046C112.05 8.50318 111.974 8.24786 111.779 8.10285C111.745 8.07716 111.708 8.05615 111.669 8.04039Z" fill="#4D8AF0"/>
<path d="M149.332 241.563C149.332 241.563 149.232 241.342 149.089 240.999C141.66 241.742 132.397 240.507 125.943 239.334H125.692C110.49 242.754 77.5973 241.161 77.5973 241.161C77.5973 241.161 68.9726 237.146 65.8874 231.253C63.9236 227.517 66.2438 221.999 70.4369 219.013C63.7859 217.526 53.7077 214.262 56.4671 208.492C60.5054 200.057 76.9259 214.382 76.9259 214.382L100.071 198.316C106.262 195.219 105.457 170.45 105.457 170.45C105.457 170.45 105.176 155.312 107.35 150.885C107.99 149.568 110.026 148.343 112.563 147.276C112.768 143.644 113.026 140.069 111.13 137.379C109.951 135.707 108.155 134.799 106.89 133.217C105.296 131.238 104.737 128.42 104.61 125.71C104.346 119.933 106.338 113.51 110.822 111.103C112.012 110.463 113.359 110.125 114.411 109.196C117.949 106.055 116.286 98.3532 119.958 95.4354C121.027 94.5894 122.353 94.3482 123.636 94.1727C127.222 93.6741 130.804 93.6291 134.42 93.6291C135.478 93.6318 136.553 93.4725 137.625 93.3141C138.917 93.1224 140.207 92.9307 141.468 93.0234C147.676 93.4779 150.795 101.459 153.808 106.706C155.671 109.943 158.056 113.043 161.237 114.178C162.241 114.536 163.369 114.729 164.093 115.626C164.545 116.287 164.839 117.044 164.95 117.838C166.111 123.508 165.334 129.772 167.61 134.95C169.454 139.154 172.985 141.879 175.789 145.271C178.594 148.663 180.808 153.72 179.094 158C178.085 160.415 176.004 162.215 173.475 162.861C173.32 162.906 173.142 162.947 172.978 162.981C172.857 164.419 172.604 165.842 172.221 167.233C172.221 167.233 173.03 183.299 173.568 187.049C174.106 190.799 175.45 196.152 175.45 196.152L192.13 209.008C192.13 209.008 215.413 198.026 213.932 207.687C213.12 212.982 206.058 214.722 199.857 215.217C205.396 216.999 210.004 220.867 205.588 229.247C199.819 240.195 176.513 242 161.768 242C154.514 242 149.332 241.563 149.332 241.563Z" fill="url(#paint0_linear_12_2727)"/>
<path d="M155.838 110.473C157.645 113.656 159.975 116.713 163.078 117.812C164.053 118.158 165.146 118.356 165.836 119.24C166.278 119.89 166.564 120.634 166.673 121.413C167.801 126.98 167.046 133.133 169.259 138.225C171.051 142.347 174.482 145.03 177.208 148.354C179.935 151.678 182.073 156.649 180.421 160.851C179.447 163.217 177.424 164.986 174.957 165.627C172.675 166.251 170.293 165.991 167.976 165.579C164.922 165.035 161.812 164.192 159.268 162.112C154.866 158.514 153.004 152.06 150.702 146.316C149.619 143.626 148.181 140.808 145.803 139.848C143.079 138.745 140.015 140.586 138.246 143.286C136.478 145.987 135.695 149.38 134.837 152.646C133.871 156.334 132.651 160.161 130.11 162.573C127.862 164.778 124.534 165.447 121.616 164.279C118.789 163.097 116.555 160.098 115.904 156.622C114.904 151.266 117.303 144.836 114.356 140.6C113.211 138.96 111.463 138.066 110.236 136.513C108.702 134.568 108.143 131.799 108.023 129.14C107.764 123.462 109.698 117.136 114.059 114.786C115.224 114.158 116.524 113.829 117.548 112.914C120.995 109.832 119.368 102.265 122.936 99.3948C123.97 98.5594 125.267 98.3271 126.515 98.1503C130.01 97.665 133.482 97.6096 136.995 97.62C139.267 97.62 141.607 96.8574 143.848 97.0237C149.881 97.4778 152.911 105.319 155.838 110.473Z" fill="#965D7B"/>
<path d="M93 224.551L94.2827 240L184 239.455L182.289 222.589L151.956 219L98.767 222.266L93 224.551Z" fill="#575988"/>
<path opacity="0.05" d="M93 224.551L94.2827 240L184 239.455L182.289 222.589L151.956 219L98.767 222.266L93 224.551Z" fill="black"/>
<path d="M153.412 234L123 235.813C123 235.813 143.836 239.192 156 237.55L153.412 234Z" fill="#F7C4A7"/>
<path opacity="0.1" d="M153.412 234L123 235.813C123 235.813 143.836 239.192 156 237.55L153.412 234Z" fill="black"/>
<path d="M129.872 125C129.872 125 135.55 140.921 127.157 148.025C118.764 155.13 125.677 175 125.677 175L158.01 173.419C158.01 173.419 161.216 151.052 159.489 146.316C159.489 146.316 151.838 148.684 150.111 143.685C148.384 138.685 147.149 125 147.149 125L129.872 125Z" fill="#F7C4A7"/>
<path d="M119.634 221.904C119.634 221.904 92.0207 221.279 83.9018 219.271C75.7828 217.263 68.7833 226.901 71.6575 232.412C74.5317 237.922 82.5223 241.655 82.5223 241.655C82.5223 241.655 123.631 243.653 132.5 238.034C132.5 238.034 135.875 228.415 132.5 226.542H89.6469L121.253 225.917L119.634 221.904Z" fill="#575988"/>
<path d="M167.811 217.302C167.811 217.302 177.221 219.498 190.185 214.007C190.185 214.007 214.469 213.185 206.332 229.923C198.195 246.661 153.191 242.555 153.191 242.555C153.191 242.555 150.511 236.377 153.191 234.731C155.871 233.085 179.127 222.511 186.373 223.061L166.273 227.315L167.811 217.302Z" fill="#575988"/>
<path opacity="0.1" d="M149 131.407C148.503 128.428 148.212 126 148.212 126H130C130.841 127.918 131.425 129.902 131.741 131.919C136.989 134.873 144.038 134.664 149 131.407Z" fill="black"/>
<circle cx="139.5" cy="120.5" r="14.5" fill="#F7C4A7"/>
<path d="M127.454 144.555C127.454 144.555 110.14 147.798 108.042 152.074C105.943 156.35 106.206 171.012 106.206 171.012C106.206 171.012 106.991 195.004 100.959 197.988L78.3942 213.552C78.3942 213.552 62.3935 199.676 58.4564 207.845C54.5193 216.013 77.3469 219 77.3469 219L102.795 211.481L110.928 206.293C110.928 206.293 114.73 204.478 115.124 200.066L118.536 173.349L132.179 169.457H154.215L157.167 161.124C157.167 161.124 162.611 165.437 161.823 169.457C161.035 173.476 163.137 199.533 163.137 199.533C163.137 199.533 164.841 205.367 168.384 207.052L188.847 214.314C188.847 214.314 210.489 216.389 211.934 207.052C213.379 197.714 190.683 208.381 190.683 208.381L174.405 195.917C174.405 195.917 173.095 190.729 172.57 187.096C172.044 183.462 171.26 167.902 171.26 167.902C171.26 167.902 176.244 151.558 161.813 148.708L143.185 143L127.454 144.555Z" fill="#F7C4A7"/>
<path opacity="0.1" d="M114.72 149.204L117.399 166.748C117.399 166.748 114.644 174.906 117.399 182.934C120.154 190.963 114 220.879 114 220.879C114 220.879 146.281 231.115 166 219.323C166 219.323 151.495 189.025 157.635 178.925C163.775 168.826 157.739 164.875 157.739 164.875L158.682 146.297L154.24 145L151.626 163.387C151.626 163.387 133.591 175.817 120.261 164.943L117.385 145L114.72 149.204Z" fill="black"/>
<path opacity="0.07" d="M134 167.953C131.677 164.277 126.916 162.951 123 164.888C126.513 167.504 130.388 168.202 134 167.953Z" fill="white"/>
<path opacity="0.07" d="M147 167.957C149.321 164.278 154.083 162.949 158 164.889C154.492 167.496 150.616 168.193 147 167.957Z" fill="white"/>
<path opacity="0.1" d="M114.72 150.115L117.399 166.752C117.399 166.752 114.644 174.91 117.399 182.939C120.154 190.968 114 220.878 114 220.878C114 220.878 146.281 231.114 166 219.325C166 219.325 151.495 189.026 157.635 178.926C163.775 168.827 157.739 164.875 157.739 164.875L158.682 146.293L154.24 145L151.626 163.388C151.626 163.388 133.591 175.818 120.261 164.94L117.385 145L114.72 150.115Z" fill="black"/>
<path d="M114.589 149.726L117.399 166.752C117.399 166.752 114.644 174.91 117.399 182.939C120.154 190.968 114 220.878 114 220.878C114 220.878 146.281 231.114 166 219.325C166 219.325 151.495 189.023 157.635 178.923C163.775 168.823 157.739 164.875 157.739 164.875L158.682 146.293L154.24 145L151.626 163.388C151.626 163.388 133.591 175.818 120.261 164.94L117.385 145L114.589 149.726Z" fill="#FC6681"/>
<path d="M131 227.417L137.687 226.463C137.687 226.463 145.405 216.012 150.937 224.02C150.937 224.02 153.252 229.177 156.082 230.125C158.017 230.743 159.996 231.198 162 231.484L150.55 234.878C150.55 234.878 145.534 238 140.26 237.185C137.156 236.684 133.983 236.963 131 238V227.417Z" fill="#F7C4A7"/>
<path opacity="0.1" d="M121 183.475C121 183.475 135.528 185.354 138 182L121 183.475Z" fill="black"/>
<path opacity="0.1" d="M150 180C150 180 151.6 183.704 158 181.03L150 180Z" fill="black"/>
<path opacity="0.1" d="M123 145C123 145 129.733 148.38 131 146.352L123 145Z" fill="black"/>
<path opacity="0.1" d="M145 145C145 145 151.733 148.38 153 146.352L145 145Z" fill="black"/>
<path opacity="0.1" d="M130.068 228C130.068 228 132.165 235.696 130.068 235.968C127.971 236.24 125 234.7 125 234.528C125 234.356 126.321 229.46 126.321 229.46L130.068 228Z" fill="black"/>
<path d="M130.07 228C130.07 228 132.163 235.696 130.07 235.968C127.976 236.24 125 234.7 125 234.528C125 234.356 126.321 229.46 126.321 229.46L130.07 228Z" fill="#575988"/>
<path opacity="0.1" d="M121.869 146.008C120.943 148.33 120.615 151.07 121.596 153.364C122.346 155.114 123.812 156.531 124.094 158.435C124.448 160.827 122.81 163.252 123.423 165.581C123.655 166.47 124.198 167.224 124.75 167.931C126.429 170.077 128.659 172.157 131.25 171.991C131.662 167.661 128.2 163.46 129.333 159.284C129.739 157.788 130.692 156.544 131.267 155.117C132.222 152.751 132.086 150.049 131.74 147.494C131.238 143.787 129.966 139.243 126.568 137.509C125.009 136.71 122.793 136.651 122.238 138.819C121.933 139.975 122.645 141.062 122.741 142.193C122.86 143.629 122.383 144.72 121.869 146.008Z" fill="black"/>
<path d="M121.869 140.011C120.943 142.333 120.615 145.07 121.596 147.367C122.346 149.114 123.812 150.534 124.094 152.435C124.448 154.826 122.81 157.252 123.423 159.58C123.655 160.47 124.198 161.227 124.75 161.934C126.429 164.077 128.659 166.157 131.25 165.991C131.662 161.661 128.2 157.459 129.333 153.283C129.739 151.788 130.692 150.543 131.267 149.117C132.222 146.751 132.086 144.048 131.74 141.494C131.238 137.786 129.966 133.242 126.568 131.508C125.009 130.71 122.793 130.653 122.238 132.818C121.933 133.974 122.645 135.062 122.741 136.193C122.86 137.629 122.383 138.719 121.869 140.011Z" fill="#965D7B"/>
<path opacity="0.1" d="M121 113.658C121 113.658 139.054 111.111 139.549 114.93C140.045 118.75 156 125 156 125L152.041 114.93L144.744 102.448C144.744 102.448 131.383 101.441 130.77 102.448C130.157 103.454 123.099 106.777 123.099 106.777L121 113.658Z" fill="black"/>
<path d="M121 113.658C121 113.658 139.054 111.111 139.549 114.93C140.045 118.75 156 125 156 125L152.041 114.93L144.744 102.448C144.744 102.448 131.383 101.441 130.77 102.448C130.157 103.454 123.099 106.777 123.099 106.777L121 113.658Z" fill="#965D7B"/>
<path opacity="0.1" d="M148.893 139.862C150.033 140.999 150.839 142.342 151.245 143.784C151.635 145.165 151.668 146.602 152.019 147.984C152.806 150.926 155.146 153.399 157.582 155.626C158.374 156.433 159.339 157.109 160.43 157.62C161.546 158.078 162.968 158.173 164 157.62C163.019 156.947 162.486 155.922 162.134 154.907C161.639 153.488 161.42 152.012 161.483 150.534C161.589 148.068 162.456 145.464 161.225 143.216C160.514 141.916 159.19 140.93 157.841 140.045C156.902 139.413 155.89 138.859 154.82 138.393C152.823 137.565 150.539 137.202 148.335 137.019C145.467 136.776 147.975 138.96 148.893 139.862Z" fill="black"/>
<path d="M148.893 139.868C150.035 141.003 150.84 142.345 151.245 143.786C151.635 145.167 151.668 146.604 152.019 147.985C152.806 150.927 155.146 153.4 157.582 155.626C158.374 156.433 159.339 157.109 160.43 157.62C161.546 158.078 162.968 158.173 164 157.62C163.019 156.947 162.486 155.926 162.134 154.907C161.639 153.488 161.42 152.012 161.483 150.536C161.589 148.069 162.456 145.466 161.225 143.218C160.514 141.922 159.19 140.936 157.841 140.048C156.903 139.413 155.891 138.858 154.82 138.392C152.823 137.564 150.539 137.201 148.335 137.018C145.467 136.779 147.975 138.963 148.893 139.868Z" fill="#965D7B"/>
<defs>
<linearGradient id="paint0_linear_12_2727" x1="95.4997" y1="130.25" x2="95.4997" y2="130.25" gradientUnits="userSpaceOnUse">
<stop stop-color="#808080" stop-opacity="0.25098"/>
<stop offset="0.54" stop-color="#808080" stop-opacity="0.121569"/>
<stop offset="1" stop-color="#808080" stop-opacity="0.101961"/>
</linearGradient>
</defs>
</svg>
