<svg width="179" height="185" viewBox="0 0 179 185" fill="none" xmlns="http://www.w3.org/2000/svg">
<g filter="url(#filter0_b_12_1092)">
<circle cx="91.9905" cy="107.127" r="3.88639" stroke="#3F3D56" stroke-width="0.5"/>
</g>
<g filter="url(#filter1_b_12_1092)">
<path d="M99.9116 99.8182L98.972 98.8737C98.8789 98.7786 98.7518 98.7246 98.6188 98.7236C98.4857 98.7227 98.3579 98.775 98.2635 98.8688L92.365 104.718L89.8708 102.204C89.7781 102.11 89.652 102.057 89.52 102.056C89.3881 102.055 89.2612 102.107 89.1673 102.199L88.2178 103.139C88.0221 103.334 88.0199 103.65 88.2129 103.847L92.0009 107.665C92.1958 107.861 92.5119 107.863 92.7094 107.67L99.9067 100.527C100.002 100.434 100.056 100.307 100.057 100.173C100.058 100.04 100.005 99.9126 99.9116 99.8182Z" fill="#6C63FF"/>
</g>
<g filter="url(#filter2_b_12_1092)">
<path d="M0.271729 109.142C0.271729 106.956 2.04358 105.184 4.22927 105.184H66.7822C68.9679 105.184 70.7397 106.956 70.7397 109.142V109.258C70.7397 111.444 68.9679 113.216 66.7822 113.216H4.22927C2.04358 113.216 0.271729 111.444 0.271729 109.258V109.142Z" fill="#F2F2F2"/>
</g>
<g filter="url(#filter3_b_12_1092)">
<path d="M0.359863 123.068C0.359863 120.882 2.13172 119.11 4.3174 119.11H66.8703C69.056 119.11 70.8279 120.882 70.8279 123.068V123.185C70.8279 125.37 69.056 127.142 66.8703 127.142H4.3174C2.13171 127.142 0.359863 125.37 0.359863 123.185V123.068Z" fill="#F2F2F2"/>
</g>
<g filter="url(#filter4_b_12_1092)">
<path d="M0.447876 136.994C0.447876 134.808 2.21973 133.037 4.40542 133.037H66.9583C69.144 133.037 70.9159 134.808 70.9159 136.994V137.111C70.9159 139.297 69.144 141.068 66.9583 141.068H4.40542C2.21973 141.068 0.447876 139.297 0.447876 137.111V136.994Z" fill="#F2F2F2"/>
</g>
<g filter="url(#filter5_b_12_1092)">
<path d="M0.536011 150.92C0.536011 148.735 2.30786 146.963 4.49355 146.963H67.0465C69.2322 146.963 71.004 148.735 71.004 150.92V151.037C71.004 153.223 69.2322 154.995 67.0465 154.995H4.49355C2.30786 154.995 0.536011 153.223 0.536011 151.037V150.92Z" fill="#F2F2F2"/>
</g>
<g filter="url(#filter6_b_12_1092)">
<path d="M2.474 107.069C2.474 104.883 4.24585 103.111 6.43154 103.111H68.9845C71.1701 103.111 72.942 104.883 72.942 107.069V107.186C72.942 109.371 71.1701 111.143 68.9845 111.143H6.43154C4.24585 111.143 2.474 109.371 2.474 107.186V107.069Z" stroke="#3F3D56" stroke-width="0.5"/>
</g>
<g filter="url(#filter7_b_12_1092)">
<path d="M2.56213 120.995C2.56213 118.809 4.33399 117.038 6.51968 117.038H69.0726C71.2583 117.038 73.0301 118.809 73.0301 120.995V121.112C73.0301 123.298 71.2583 125.069 69.0726 125.069H6.51967C4.33398 125.069 2.56213 123.298 2.56213 121.112V120.995Z" stroke="#3F3D56" stroke-width="0.5"/>
</g>
<g opacity="0.1" filter="url(#filter8_b_12_1092)">
<path d="M134.206 12.5089C133.344 13.2093 132.443 14.0189 132.136 15.2072C131.641 17.1236 132.883 19.0477 133.006 21.0474C133.229 24.6836 129.777 27.6887 130.286 31.2839C130.635 33.7481 132.755 35.4252 133.164 37.8764C133.76 41.4513 130.507 44.6038 130.763 48.2356C130.899 50.1702 132.028 51.8131 133.31 53.0121C135.109 54.6892 137.262 55.7416 139.531 56.0532C139.381 52.9434 137.444 50.114 137.777 47.0242C138.004 44.9055 139.256 43.1731 139.98 41.2189C141.251 37.7878 140.844 33.8165 140.082 30.1779C139.319 26.5393 138.218 22.9423 138.163 19.1926C138.13 16.9357 139.019 13.618 138.367 11.4764C137.574 8.87286 135.683 11.309 134.206 12.5089Z" fill="black"/>
</g>
<g filter="url(#filter9_b_12_1092)">
<path d="M2.65015 134.921C2.65015 132.736 4.422 130.964 6.60769 130.964H69.1606C71.3463 130.964 73.1181 132.736 73.1181 134.921V135.038C73.1181 137.224 71.3463 138.996 69.1606 138.996H6.60769C4.422 138.996 2.65015 137.224 2.65015 135.038V134.921Z" stroke="#3F3D56" stroke-width="0.5"/>
</g>
<g filter="url(#filter10_b_12_1092)">
<path d="M2.73828 148.848C2.73828 146.662 4.51013 144.89 6.69582 144.89H69.2487C71.4344 144.89 73.2063 146.662 73.2063 148.848V148.964C73.2063 151.15 71.4344 152.922 69.2487 152.922H6.69582C4.51013 152.922 2.73828 151.15 2.73828 148.964V148.848Z" stroke="#3F3D56" stroke-width="0.5"/>
</g>
<g filter="url(#filter11_b_12_1092)">
<circle cx="91.9905" cy="121.118" r="3.88639" stroke="#3F3D56" stroke-width="0.5"/>
</g>
<g filter="url(#filter12_b_12_1092)">
<circle cx="91.9905" cy="135.109" r="3.88639" stroke="#3F3D56" stroke-width="0.5"/>
</g>
<g filter="url(#filter13_b_12_1092)">
<circle cx="91.9905" cy="149.1" r="3.88639" stroke="#3F3D56" stroke-width="0.5"/>
</g>
<g filter="url(#filter14_b_12_1092)">
<path d="M99.9116 113.939L98.972 112.994C98.8789 112.899 98.7518 112.845 98.6188 112.844C98.4857 112.843 98.3579 112.896 98.2635 112.989L92.365 118.839L89.8708 116.325C89.7781 116.231 89.652 116.177 89.52 116.177C89.3881 116.176 89.2612 116.227 89.1673 116.32L88.2178 117.259C88.0221 117.454 88.0199 117.77 88.2129 117.968L92.0009 121.785C92.1958 121.981 92.5119 121.983 92.7094 121.79L99.9067 114.647C100.002 114.554 100.056 114.427 100.057 114.294C100.058 114.161 100.005 114.033 99.9116 113.939Z" fill="#6C63FF"/>
</g>
<g filter="url(#filter15_b_12_1092)">
<path d="M99.9116 142.18L98.972 141.235C98.8789 141.14 98.7518 141.086 98.6188 141.085C98.4857 141.084 98.3579 141.137 98.2635 141.23L92.365 147.08L89.8708 144.566C89.7781 144.472 89.652 144.419 89.52 144.418C89.3881 144.417 89.2612 144.468 89.1673 144.561L88.2178 145.501C88.0221 145.695 88.0199 146.011 88.2129 146.209L92.0009 150.027C92.1958 150.222 92.5119 150.224 92.7094 150.031L99.9067 142.888C100.002 142.795 100.056 142.668 100.057 142.535C100.058 142.402 100.005 142.274 99.9116 142.18Z" fill="#6C63FF"/>
</g>
<g filter="url(#filter16_b_12_1092)">
<ellipse cx="138.822" cy="175.628" rx="37.2976" ry="9.20871" fill="#F2F2F2"/>
</g>
<g filter="url(#filter17_b_12_1092)">
<ellipse cx="141.686" cy="174.237" rx="36.2976" ry="9.20871" stroke="#3F3D56" stroke-width="0.5"/>
</g>
<g filter="url(#filter18_b_12_1092)">
<path d="M123.117 182.758C123.095 182.758 123.074 182.758 123.055 182.758C122.964 182.756 122.874 182.754 122.785 182.75C122.772 182.75 122.76 182.749 122.747 182.749C122.646 182.743 122.547 182.735 122.446 182.728C122.431 182.726 122.414 182.724 122.396 182.722C122.305 182.713 122.216 182.703 122.127 182.692C122.115 182.69 122.106 182.688 122.094 182.687C121.995 182.673 121.897 182.658 121.8 182.64C121.788 182.638 121.776 182.636 121.765 182.634C121.674 182.617 121.583 182.598 121.496 182.578C121.486 182.576 121.478 182.574 121.47 182.572C121.374 182.55 121.279 182.525 121.186 182.499L121.166 182.493C121.075 182.469 120.988 182.441 120.901 182.413L120.886 182.407C120.793 182.375 120.702 182.343 120.613 182.307C120.523 182.272 120.438 182.234 120.353 182.197L120.345 182.193C120.181 182.116 120.02 182.029 119.865 181.932L119.863 181.93C118.959 181.359 118.451 180.516 118.684 179.474C118.901 178.506 119.757 177.364 121.53 176.11C128.4 171.255 126.364 169.314 128.144 166.886C128.479 166.392 129.021 166.064 129.627 165.989C129.616 165.827 129.606 165.666 129.592 165.508C129.465 164.079 129.232 162.66 128.897 161.263C128.126 160.934 127.437 160.452 126.874 159.847L126.018 155.948L121.023 133.146C121.023 133.146 118.734 118.825 121.023 107.658C121.761 104.155 122.268 100.61 122.541 97.0428C122.828 93.0175 123.506 89.028 124.569 85.1247C124.629 84.8994 124.697 84.676 124.761 84.4526C124.201 84.3043 123.945 84.1879 124.075 84.1128C124.433 83.9081 124.629 83.2811 124.728 82.485C125.344 77.1343 126.533 71.8605 128.276 66.7482L128.4 66.3934C118.734 72.7054 121.277 59.3548 121.277 59.3548C121.277 59.3548 123.473 42.6905 124.203 36.6583C124.621 33.1906 129.993 31.2249 134.75 30.1585C135.251 29.1165 135.613 28.0652 135.383 26.965C134.99 25.0669 132.941 23.7696 132.604 21.8621C132.174 19.4289 134.668 17.3468 135.158 14.9793C132.652 12.8728 132.036 9.45961 136.285 7.02079C136.915 6.66032 137.579 6.34303 138.255 6.03701C138.503 5.88306 138.772 5.7629 139.055 5.68217C141.307 4.69463 143.569 3.739 144.917 1.81837C145.263 1.32272 145.567 0.748221 146.129 0.487254C146.394 0.378362 146.677 0.316406 146.964 0.307019C149.078 0.149313 151.098 0.926579 153.112 1.70384C155.225 2.52054 157.336 3.33723 159.547 3.07251C160.855 2.91668 162.189 2.38348 163.444 2.76836C164.269 3.01994 164.914 3.63387 165.468 4.26845C168.522 7.80369 169.792 12.4767 168.93 17.0107C168.382 19.7687 167.052 22.6112 168.01 25.264C168.715 27.2128 170.601 28.7936 170.615 30.8551C170.627 32.5523 169.383 33.9059 168.183 35.2258C168.34 35.3816 168.493 35.5393 168.64 35.7026C171.574 38.9431 171.018 41.7086 170.605 42.8144V42.8163L169.097 56.9273L167.824 66.3934C167.824 66.3934 167.317 72.7054 161.467 71.0044C160.45 70.7172 159.455 70.3698 158.48 69.9662C159.102 71.8117 160.388 76.2106 160.194 80.4724C159.941 86.0541 160.704 86.5403 160.704 86.5403C160.655 86.5985 160.601 86.6492 160.541 86.6962C163.562 93.1677 163.591 99.8064 160.448 106.445C156.887 113.97 160.704 131.447 160.704 131.447C160.704 131.447 161.72 141.642 160.704 144.554C160.084 146.322 159.749 150.774 159.58 153.999C159.47 156.087 159.431 157.662 159.431 157.662C158.509 158.642 157.313 159.337 155.988 159.663L155.87 161.789C156.246 162.748 156.251 164.179 156.16 165.384C156.149 165.529 156.137 165.667 156.124 165.805C156.546 166.608 156.842 167.47 157.003 168.358C157.32 170.106 157.752 172.655 157.905 174.411C158.159 177.325 155.616 177.809 150.273 178.537C150.122 178.558 149.977 178.573 149.837 178.583C149.816 178.584 149.795 178.586 149.774 178.588C149.642 178.596 149.516 178.599 149.396 178.599C149.375 178.599 149.351 178.599 149.33 178.598C149.21 178.596 149.096 178.59 148.987 178.581C148.972 178.579 148.956 178.577 148.943 178.575C148.832 178.564 148.728 178.549 148.629 178.528L148.617 178.526C148.523 178.507 148.428 178.483 148.335 178.453C148.321 178.449 148.306 178.444 148.292 178.44C148.211 178.414 148.131 178.382 148.054 178.346C148.038 178.338 148.025 178.333 148.009 178.325C147.938 178.292 147.868 178.252 147.8 178.209C147.791 178.203 147.783 178.196 147.773 178.19C147.711 178.149 147.653 178.106 147.597 178.059C147.591 178.053 147.585 178.049 147.579 178.044C147.525 177.997 147.473 177.946 147.426 177.892C147.415 177.88 147.405 177.869 147.394 177.856C147.351 177.805 147.31 177.753 147.273 177.696C147.262 177.681 147.252 177.666 147.242 177.651C147.208 177.595 147.175 177.539 147.144 177.48C147.136 177.465 147.13 177.45 147.122 177.434C147.099 177.385 147.076 177.332 147.057 177.28C147.049 177.263 147.043 177.244 147.035 177.227C147.016 177.169 146.998 177.111 146.981 177.05C146.975 177.026 146.967 177 146.962 176.975C146.948 176.919 146.936 176.861 146.925 176.803C146.919 176.773 146.915 176.743 146.911 176.711C146.904 176.667 146.9 176.624 146.894 176.581C146.89 176.532 146.884 176.485 146.882 176.437C146.88 176.405 146.878 176.373 146.876 176.341C146.875 176.275 146.873 176.211 146.873 176.146C146.873 176.123 146.873 176.101 146.873 176.078C146.876 175.935 146.884 175.793 146.9 175.65C146.991 174.891 147.184 174.148 147.477 173.44C147.477 173.44 147.73 174.169 148.24 167.614C148.397 165.591 148.772 164.331 149.216 163.557C149.361 163.048 149.623 162.581 149.985 162.187L149.992 162.177C150.331 161.837 150.523 161.385 150.529 160.912V158.685C149.987 158.392 149.475 158.051 149.003 157.662C149.003 157.662 149.003 155.957 149.043 153.458C149.096 150.139 149.222 145.414 149.51 141.4C149.77 138.401 149.555 135.382 148.873 132.446C148.406 130.606 148.075 128.736 147.885 126.849L147.221 120.038C144.932 104.746 142.134 104.26 142.134 104.26C142.043 104.327 141.954 104.402 141.863 104.481C137.953 107.885 135.332 119.921 134.002 127.711C133.318 131.719 132.978 134.601 132.978 134.601C132.978 134.601 136.283 147.71 136.03 149.409C135.913 150.197 136.233 152.193 136.611 154.1C137.044 156.303 137.556 158.39 137.556 158.39C136.899 159.078 136.175 159.701 135.393 160.249C135.53 163.291 136.932 166.402 137.902 168.213C137.943 168.288 137.982 168.36 138.02 168.431C138.259 167.898 138.489 167.436 138.828 167.372C139.823 167.181 140.04 172.055 140.087 174.176C140.089 174.249 140.089 174.321 140.091 174.386C140.093 174.43 140.093 174.467 140.093 174.507C140.093 174.533 140.095 174.559 140.095 174.585C140.095 174.623 140.095 174.655 140.096 174.689V174.764C140.096 174.792 140.096 174.816 140.098 174.843V174.906V174.976V175.017V175.062L140.1 175.092V175.139C140.1 175.139 130.689 180.237 126.111 182.178C126.016 182.219 125.919 182.255 125.824 182.29C125.799 182.3 125.774 182.309 125.75 182.319C125.657 182.351 125.566 182.382 125.473 182.411L125.456 182.416C125.359 182.446 125.26 182.474 125.162 182.501C125.136 182.508 125.111 182.514 125.086 182.521C124.995 182.544 124.904 182.565 124.813 182.585C124.803 182.587 124.794 182.589 124.784 182.591C124.685 182.611 124.584 182.63 124.484 182.647C124.459 182.651 124.433 182.655 124.408 182.66C124.319 182.673 124.228 182.687 124.137 182.698C124.126 182.7 124.114 182.702 124.102 182.703C124.002 182.715 123.901 182.724 123.8 182.732C123.775 182.735 123.752 182.735 123.729 182.737C123.637 182.745 123.548 182.749 123.459 182.752C123.446 182.754 123.432 182.754 123.419 182.754C123.345 182.757 123.271 182.759 123.197 182.759C123.171 182.759 123.144 182.758 123.117 182.758Z" fill="url(#paint0_linear_12_1092)"/>
</g>
<g filter="url(#filter19_b_12_1092)">
<path d="M134.575 12.3908C133.762 13.0931 132.911 13.9049 132.621 15.0964C132.154 17.018 133.327 18.9473 133.442 20.9524C133.653 24.5985 130.395 27.6118 130.875 31.2167C131.205 33.6876 133.206 35.3693 133.592 37.8271C134.154 41.4117 131.084 44.5727 131.325 48.2144C131.454 50.1542 132.52 51.8016 133.73 53.0039C135.428 54.6855 137.46 55.7407 139.602 56.0532C139.46 52.935 137.632 50.0979 137.946 46.9997C138.161 44.8753 139.342 43.1381 140.025 41.1786C141.225 37.7383 140.841 33.7562 140.122 30.1077C139.402 26.4592 138.363 22.8525 138.311 19.0926C138.279 16.8296 139.118 13.5029 138.503 11.3555C137.755 8.74483 135.97 11.1876 134.575 12.3908Z" fill="#3F3D56"/>
</g>
<g filter="url(#filter20_b_12_1092)">
<path d="M139.035 168.763L136.72 170.459C136.72 170.459 128.492 173.662 129.52 169.328C129.802 168.04 129.861 166.731 129.698 165.432C129.485 163.619 128.994 161.829 128.234 160.096L135.949 158.966C134.666 161.92 136.78 165.639 138.099 167.533C138.631 168.296 139.035 168.763 139.035 168.763Z" fill="#FFB9B9"/>
</g>
<g filter="url(#filter21_b_12_1092)">
<path d="M156.354 166.142C156.293 166.799 156.19 167.454 156.046 168.104C156.046 168.104 149.288 171.733 148.747 167.677C148.395 165.034 149.19 163.841 149.79 163.33L149.8 163.322C150.16 163.021 150.364 162.624 150.369 162.209V157.43L156.316 158.924L156.046 162.98C156.446 163.824 156.451 165.083 156.354 166.142Z" fill="#FFB9B9"/>
</g>
<g opacity="0.05" filter="url(#filter22_b_12_1092)">
<path d="M127.081 176.239L126.043 177.277C126.043 177.277 122.35 179.239 122.812 176.585C122.938 175.796 122.965 174.994 122.891 174.198C123.7 174.08 124.658 174.969 124.658 174.969C126.01 176.878 126.375 176.156 126.661 175.485C126.9 175.953 127.081 176.239 127.081 176.239Z" fill="black"/>
</g>
<g filter="url(#filter23_b_12_1092)">
<path d="M133.267 167.548C133.267 167.548 129.588 164.454 127.749 166.834C125.91 169.215 128.012 171.119 120.917 175.88C113.823 180.64 120.917 183.735 125.647 181.831C130.377 179.926 140.099 174.928 140.099 174.928C140.099 174.928 140.099 167.072 138.785 167.31C137.471 167.548 137.734 173.261 133.267 167.548Z" fill="#3F3D56"/>
</g>
<g filter="url(#filter24_b_12_1092)">
<path d="M151.984 161.622C151.984 161.622 149.065 160.04 148.534 167.158C148.003 174.277 147.738 173.486 147.738 173.486C147.738 173.486 145.084 179.814 150.657 179.023C156.23 178.232 158.883 177.704 158.618 174.541C158.458 172.634 158.009 169.865 157.677 167.966C157.361 166.084 156.492 164.338 155.18 162.947C154.212 161.934 153.045 161.153 151.984 161.622Z" fill="#3F3D56"/>
</g>
<g filter="url(#filter25_b_12_1092)">
<path d="M160.796 131.637C160.796 131.637 161.827 141.746 160.796 144.635C160.169 146.387 159.829 150.801 159.659 154C159.545 156.07 159.507 157.633 159.507 157.633C154.608 162.447 148.935 157.633 148.935 157.633C148.935 157.633 148.935 155.943 148.976 153.464C149.031 150.173 149.157 145.487 149.451 141.505C149.714 138.533 149.496 135.54 148.804 132.628C148.33 130.802 147.996 128.948 147.803 127.078L147.13 120.323C144.81 105.159 141.974 104.678 141.974 104.678C141.881 104.745 141.791 104.82 141.698 104.897C137.735 108.271 135.079 120.208 133.731 127.932C133.037 131.906 132.691 134.766 132.691 134.766C132.691 134.766 136.043 147.764 135.786 149.449C135.667 150.231 135.992 152.209 136.373 154.101C136.814 156.285 137.333 158.355 137.333 158.355C130.887 164.854 126.503 159.799 126.503 159.799L125.637 155.933L120.573 133.321C120.573 133.321 118.253 119.12 120.573 108.048C121.323 104.573 121.837 101.057 122.112 97.5216C122.402 93.531 123.09 89.5743 124.167 85.703C124.482 84.5572 124.831 83.4203 125.214 82.2922C125.214 82.2922 134.896 80.7204 144.013 80.7204C150.851 80.7204 157.369 81.6038 159.249 84.6993C159.682 85.4117 160.076 86.1258 160.43 86.8415C163.694 93.3911 163.792 100.119 160.538 106.844C156.928 114.306 160.796 131.637 160.796 131.637Z" fill="#3F3D56"/>
</g>
<g filter="url(#filter26_b_12_1092)">
<path d="M139.518 46.1159C139.518 46.1159 127.32 31.2923 136.526 32.3903C138.613 32.6401 140.026 32.1954 140.963 31.3609C142.031 30.4111 142.48 28.9562 142.604 27.4381C142.857 24.4103 141.819 21.1354 141.819 21.1354C141.819 21.1354 154.247 9.33135 151.716 24.155C151.438 25.6614 151.276 27.195 151.232 28.7366C151.191 31.8825 152.059 33.0876 153.276 33.5817C155.329 34.419 158.381 33.2468 159.771 35.959C162.303 40.9002 139.518 46.1159 139.518 46.1159Z" fill="#FFB9B9"/>
</g>
<g filter="url(#filter27_b_12_1092)">
<path d="M159.967 19.913C159.964 25.4289 154.962 29.8989 148.793 29.8989C142.625 29.8989 137.623 25.4289 137.62 19.913C137.62 19.7271 137.625 19.5412 137.638 19.3577C137.974 13.9562 143.057 9.77503 149.105 9.92544C155.152 10.0759 159.968 14.5031 159.967 19.913Z" fill="#FFB9B9"/>
</g>
<g filter="url(#filter28_b_12_1092)">
<path d="M141.414 30.8925C141.414 30.8925 123.815 32.3152 123.033 39.0408C122.285 45.4701 120.034 63.2268 120.034 63.2268C120.034 63.2268 117.427 77.4539 127.335 70.7283L127.207 71.107C125.421 76.559 124.202 82.1783 123.571 87.8768C123.471 88.7249 123.269 89.3933 122.902 89.6116C121.599 90.3876 157.839 95.5611 160.447 92.1983C160.447 92.1983 159.665 91.681 159.925 85.7315C160.186 79.782 157.839 73.5738 157.839 73.5738C157.839 73.5738 155.754 67.3656 158.622 61.4161C161.49 55.4666 160.447 53.6559 160.447 53.6559L170.354 46.1543C170.354 46.1543 172.494 42.5152 168.582 38.0231C166.211 35.3394 162.86 33.7017 159.27 33.4709L152.436 32.9886C152.436 32.9886 159.925 40.9808 145.846 41.7568C131.767 42.5329 141.414 30.8925 141.414 30.8925Z" fill="#575A89"/>
</g>
<g opacity="0.1" filter="url(#filter29_b_12_1092)">
<path d="M161.458 99.186C159.684 100.804 158.496 106.527 157.892 110.23C157.052 105.075 160.543 96.5423 160.543 96.5423L161.458 99.186Z" fill="black"/>
</g>
<g filter="url(#filter30_b_12_1092)">
<path d="M126.966 56.1574C126.966 55.8374 127.225 55.5779 127.545 55.5779H147.064C147.384 55.5779 147.643 55.8374 147.643 56.1574V62.9482C147.643 63.2683 147.384 63.5277 147.064 63.5277H127.545C127.225 63.5277 126.966 63.2683 126.966 62.9482V56.1574Z" fill="#CDD0DB"/>
</g>
<g opacity="0.05" filter="url(#filter31_b_12_1092)">
<path d="M126.966 56.1574C126.966 55.8374 127.225 55.5779 127.545 55.5779H147.095C147.415 55.5779 147.674 55.8374 147.674 56.1574V63.5706C147.674 63.8906 147.415 64.1501 147.095 64.1501H127.545C127.225 64.1501 126.966 63.8906 126.966 63.5706V56.1574Z" fill="black"/>
</g>
<g filter="url(#filter32_b_12_1092)">
<path d="M126.966 56.2728C126.966 55.9528 127.225 55.6933 127.545 55.6933H147.095C147.415 55.6933 147.674 55.9528 147.674 56.2728V63.686C147.674 64.0061 147.415 64.2655 147.095 64.2655H127.545C127.225 64.2655 126.966 64.0061 126.966 63.686V56.2728Z" fill="#3F3D56"/>
</g>
<g filter="url(#filter33_b_12_1092)">
<circle cx="145.062" cy="57.6624" r="0.846196" fill="#9DA7C0"/>
</g>
<g filter="url(#filter34_b_12_1092)">
<path d="M119.642 68.4725C120.143 66.9309 121.277 65.6964 122.74 65.0994C123.898 64.6556 124.849 63.7731 125.401 62.6312C126.482 60.1571 128.402 57.6063 133.339 59.3068C138.276 61.0073 131.968 62.141 131.968 62.141C131.968 62.141 143.213 60.4405 138.824 63.8415C134.436 67.2425 128.951 69.2265 128.951 69.2265L126.25 72.1817C125.467 73.0551 124.36 73.5412 123.208 73.5175C122.056 73.4939 120.969 72.9629 120.22 72.0581C119.417 71.0578 119.196 69.6882 119.642 68.4725Z" fill="#FFB9B9"/>
</g>
<g filter="url(#filter35_b_12_1092)">
<path d="M160.991 73.4881L158.933 78.579L156.298 76.6055L148.934 71.0924L143.934 67.7982C136.876 62.4078 143.934 61.5094 143.934 61.5094C141.287 60.3116 143.934 59.1137 143.934 59.1137C153.345 57.0174 151.581 64.8036 151.581 64.8036L157.542 67.951L159.521 68.9961L160.991 73.4881Z" fill="#FFB9B9"/>
</g>
<g filter="url(#filter36_b_12_1092)">
<path d="M171.385 41.9619L171.938 44.4536L170.238 62.8643L168.804 75.2156C168.804 75.2156 168.231 83.4499 161.635 81.233C155.04 79.016 154.467 76.7991 154.467 76.7991C154.467 76.7991 163.929 80.2828 157.908 67.9315C157.908 67.9315 161.349 69.8317 160.775 64.7645C160.202 59.6972 160.775 50.8296 160.775 50.8296L171.385 41.9619Z" fill="#575A89"/>
</g>
<g filter="url(#filter37_b_12_1092)">
<path d="M145.647 14.7032C146.388 16.844 148.78 18.1655 151.248 17.7982C152.165 17.6342 153.316 17.3027 153.881 17.9702C154.025 18.1556 154.113 18.3717 154.135 18.5969C154.419 20.6024 151.893 22.0321 151.348 23.9939C150.788 26.0141 152.431 27.9653 152.78 30.0232C152.972 31.149 152.769 32.2958 152.784 33.4345C152.798 34.5732 153.084 35.7964 154.026 36.5608C154.968 37.3251 156.709 37.3328 157.34 36.3444C160.354 37.7716 159.15 42.1951 161.439 44.4589C162.701 45.7076 164.778 46.0079 166.65 45.8479C167.088 45.842 167.515 45.7186 167.874 45.4937C168.185 45.2201 168.394 44.8679 168.473 44.4846C168.946 42.8824 168.865 41.1895 168.24 39.6296C167.94 38.884 167.509 38.1301 167.621 37.3437C167.757 36.7337 168.078 36.1693 168.55 35.7124C169.989 34.1138 171.953 32.5681 171.938 30.5143C171.924 28.4755 169.937 26.9113 169.195 24.984C168.185 22.361 169.587 19.551 170.163 16.8247C171.074 12.3487 169.74 7.74041 166.518 4.22458C165.934 3.59657 165.256 2.98916 164.387 2.73989C163.066 2.36057 161.66 2.88758 160.282 3.0424C155.736 3.55344 151.6 -0.0124368 147.032 0.306792C146.729 0.31687 146.431 0.377652 146.153 0.486002C145.562 0.743311 145.241 1.31111 144.876 1.80058C142.86 4.50172 138.895 5.27144 135.787 6.94606C126.711 11.8366 138.705 20.6897 145.647 14.7032Z" fill="#3F3D56"/>
</g>
<g opacity="0.3" filter="url(#filter38_b_12_1092)">
<path d="M125.646 180.876C122.576 182.114 118.509 181.242 117.975 179.172C117.332 181.904 122.138 183.244 125.646 181.83C130.376 179.922 140.099 174.914 140.099 174.914C140.099 174.914 140.099 174.544 140.085 173.967C139.802 174.113 130.306 178.997 125.646 180.876Z" fill="white"/>
</g>
<g opacity="0.3" filter="url(#filter39_b_12_1092)">
<path d="M158.604 174.167C158.298 176.818 155.65 177.376 150.656 178.168C148.116 178.571 147.287 177.321 147.135 175.841C146.969 177.736 147.453 179.855 150.656 179.347C156.229 178.462 158.883 177.873 158.618 174.337C158.614 174.282 158.609 174.224 158.604 174.167Z" fill="white"/>
</g>
<g opacity="0.1">
<g filter="url(#filter40_b_12_1092)">
<path d="M167.439 44.7716C165.529 44.929 163.41 44.6336 162.122 43.4054C159.787 41.1785 161.015 36.8272 157.939 35.4234C157.295 36.3956 155.519 36.3881 154.557 35.6362C153.596 34.8843 153.305 33.681 153.29 32.561C153.276 31.4409 153.482 30.3128 153.287 29.2054C152.93 27.1811 151.254 25.2618 151.826 23.2746C152.381 21.3448 154.959 19.9384 154.67 17.9657C154.647 17.7442 154.557 17.5317 154.41 17.3492C153.833 16.6927 152.659 17.0187 151.723 17.1801C149.205 17.5414 146.764 16.2414 146.008 14.1356C139.676 19.3994 129.227 13.0001 133.695 8.14661C126.723 13.0412 138.161 20.6939 144.914 15.08C145.671 17.1859 148.112 18.4858 150.63 18.1245C151.565 17.9631 152.74 17.6371 153.317 18.2936C153.464 18.4761 153.553 18.6886 153.576 18.9101C153.865 20.8828 151.288 22.2892 150.732 24.219C150.161 26.2062 151.837 28.1255 152.194 30.1498C152.389 31.2572 152.182 32.3853 152.197 33.5054C152.212 34.6255 152.503 35.8287 153.464 36.5806C154.425 37.3324 156.202 37.34 156.846 36.3678C159.922 37.7716 158.694 42.1229 161.029 44.3498C162.317 45.578 164.436 45.8734 166.346 45.716C166.793 45.7102 167.229 45.5889 167.596 45.3676C167.833 45.1807 168.007 44.9419 168.1 44.6764C167.884 44.7248 167.662 44.7566 167.439 44.7716Z" fill="black"/>
</g>
<g filter="url(#filter41_b_12_1092)">
<path d="M130.305 95.8704C130.345 95.8112 130.383 95.7495 130.423 95.6885C130.413 95.6926 130.403 95.6955 130.394 95.7C130.139 95.8237 130.001 96.0967 129.844 96.332C129.789 96.413 129.732 96.4904 129.672 96.5644C129.915 96.3645 130.128 96.1308 130.305 95.8704Z" fill="black"/>
</g>
</g>
<g opacity="0.1" filter="url(#filter42_b_12_1092)">
<path d="M157.859 96.4237C157.859 96.4237 160.578 95.6544 160.949 94.5004C161.321 93.3464 157.859 96.4237 157.859 96.4237Z" fill="black"/>
</g>
<defs>
<filter id="filter0_b_12_1092" x="86.3088" y="101.446" width="11.3634" height="11.3634" filterUnits="userSpaceOnUse" color-interpolation-filters="sRGB">
<feFlood flood-opacity="0" result="BackgroundImageFix"/>
<feGaussianBlur in="BackgroundImageFix" stdDeviation="0.772648"/>
<feComposite in2="SourceAlpha" operator="in" result="effect1_backgroundBlur_12_1092"/>
<feBlend mode="normal" in="SourceGraphic" in2="effect1_backgroundBlur_12_1092" result="shape"/>
</filter>
<filter id="filter1_b_12_1092" x="86.5243" y="97.1783" width="15.0778" height="12.1801" filterUnits="userSpaceOnUse" color-interpolation-filters="sRGB">
<feFlood flood-opacity="0" result="BackgroundImageFix"/>
<feGaussianBlur in="BackgroundImageFix" stdDeviation="0.772648"/>
<feComposite in2="SourceAlpha" operator="in" result="effect1_backgroundBlur_12_1092"/>
<feBlend mode="normal" in="SourceGraphic" in2="effect1_backgroundBlur_12_1092" result="shape"/>
</filter>
<filter id="filter2_b_12_1092" x="-1.27357" y="103.639" width="73.5586" height="11.1225" filterUnits="userSpaceOnUse" color-interpolation-filters="sRGB">
<feFlood flood-opacity="0" result="BackgroundImageFix"/>
<feGaussianBlur in="BackgroundImageFix" stdDeviation="0.772648"/>
<feComposite in2="SourceAlpha" operator="in" result="effect1_backgroundBlur_12_1092"/>
<feBlend mode="normal" in="SourceGraphic" in2="effect1_backgroundBlur_12_1092" result="shape"/>
</filter>
<filter id="filter3_b_12_1092" x="-1.18543" y="117.565" width="73.5586" height="11.1225" filterUnits="userSpaceOnUse" color-interpolation-filters="sRGB">
<feFlood flood-opacity="0" result="BackgroundImageFix"/>
<feGaussianBlur in="BackgroundImageFix" stdDeviation="0.772648"/>
<feComposite in2="SourceAlpha" operator="in" result="effect1_backgroundBlur_12_1092"/>
<feBlend mode="normal" in="SourceGraphic" in2="effect1_backgroundBlur_12_1092" result="shape"/>
</filter>
<filter id="filter4_b_12_1092" x="-1.09742" y="131.491" width="73.5586" height="11.1225" filterUnits="userSpaceOnUse" color-interpolation-filters="sRGB">
<feFlood flood-opacity="0" result="BackgroundImageFix"/>
<feGaussianBlur in="BackgroundImageFix" stdDeviation="0.772648"/>
<feComposite in2="SourceAlpha" operator="in" result="effect1_backgroundBlur_12_1092"/>
<feBlend mode="normal" in="SourceGraphic" in2="effect1_backgroundBlur_12_1092" result="shape"/>
</filter>
<filter id="filter5_b_12_1092" x="-1.00929" y="145.418" width="73.5586" height="11.1225" filterUnits="userSpaceOnUse" color-interpolation-filters="sRGB">
<feFlood flood-opacity="0" result="BackgroundImageFix"/>
<feGaussianBlur in="BackgroundImageFix" stdDeviation="0.772648"/>
<feComposite in2="SourceAlpha" operator="in" result="effect1_backgroundBlur_12_1092"/>
<feBlend mode="normal" in="SourceGraphic" in2="effect1_backgroundBlur_12_1092" result="shape"/>
</filter>
<filter id="filter6_b_12_1092" x="0.678702" y="101.316" width="74.0586" height="11.6225" filterUnits="userSpaceOnUse" color-interpolation-filters="sRGB">
<feFlood flood-opacity="0" result="BackgroundImageFix"/>
<feGaussianBlur in="BackgroundImageFix" stdDeviation="0.772648"/>
<feComposite in2="SourceAlpha" operator="in" result="effect1_backgroundBlur_12_1092"/>
<feBlend mode="normal" in="SourceGraphic" in2="effect1_backgroundBlur_12_1092" result="shape"/>
</filter>
<filter id="filter7_b_12_1092" x="0.766837" y="115.242" width="74.0586" height="11.6225" filterUnits="userSpaceOnUse" color-interpolation-filters="sRGB">
<feFlood flood-opacity="0" result="BackgroundImageFix"/>
<feGaussianBlur in="BackgroundImageFix" stdDeviation="0.772648"/>
<feComposite in2="SourceAlpha" operator="in" result="effect1_backgroundBlur_12_1092"/>
<feBlend mode="normal" in="SourceGraphic" in2="effect1_backgroundBlur_12_1092" result="shape"/>
</filter>
<filter id="filter8_b_12_1092" x="128.69" y="8.77413" width="13.6531" height="48.8244" filterUnits="userSpaceOnUse" color-interpolation-filters="sRGB">
<feFlood flood-opacity="0" result="BackgroundImageFix"/>
<feGaussianBlur in="BackgroundImageFix" stdDeviation="0.772648"/>
<feComposite in2="SourceAlpha" operator="in" result="effect1_backgroundBlur_12_1092"/>
<feBlend mode="normal" in="SourceGraphic" in2="effect1_backgroundBlur_12_1092" result="shape"/>
</filter>
<filter id="filter9_b_12_1092" x="0.85485" y="129.169" width="74.0586" height="11.6225" filterUnits="userSpaceOnUse" color-interpolation-filters="sRGB">
<feFlood flood-opacity="0" result="BackgroundImageFix"/>
<feGaussianBlur in="BackgroundImageFix" stdDeviation="0.772648"/>
<feComposite in2="SourceAlpha" operator="in" result="effect1_backgroundBlur_12_1092"/>
<feBlend mode="normal" in="SourceGraphic" in2="effect1_backgroundBlur_12_1092" result="shape"/>
</filter>
<filter id="filter10_b_12_1092" x="0.942985" y="143.095" width="74.0586" height="11.6225" filterUnits="userSpaceOnUse" color-interpolation-filters="sRGB">
<feFlood flood-opacity="0" result="BackgroundImageFix"/>
<feGaussianBlur in="BackgroundImageFix" stdDeviation="0.772648"/>
<feComposite in2="SourceAlpha" operator="in" result="effect1_backgroundBlur_12_1092"/>
<feBlend mode="normal" in="SourceGraphic" in2="effect1_backgroundBlur_12_1092" result="shape"/>
</filter>
<filter id="filter11_b_12_1092" x="86.3088" y="115.437" width="11.3634" height="11.3634" filterUnits="userSpaceOnUse" color-interpolation-filters="sRGB">
<feFlood flood-opacity="0" result="BackgroundImageFix"/>
<feGaussianBlur in="BackgroundImageFix" stdDeviation="0.772648"/>
<feComposite in2="SourceAlpha" operator="in" result="effect1_backgroundBlur_12_1092"/>
<feBlend mode="normal" in="SourceGraphic" in2="effect1_backgroundBlur_12_1092" result="shape"/>
</filter>
<filter id="filter12_b_12_1092" x="86.3088" y="129.428" width="11.3634" height="11.3634" filterUnits="userSpaceOnUse" color-interpolation-filters="sRGB">
<feFlood flood-opacity="0" result="BackgroundImageFix"/>
<feGaussianBlur in="BackgroundImageFix" stdDeviation="0.772648"/>
<feComposite in2="SourceAlpha" operator="in" result="effect1_backgroundBlur_12_1092"/>
<feBlend mode="normal" in="SourceGraphic" in2="effect1_backgroundBlur_12_1092" result="shape"/>
</filter>
<filter id="filter13_b_12_1092" x="86.3088" y="143.419" width="11.3634" height="11.3634" filterUnits="userSpaceOnUse" color-interpolation-filters="sRGB">
<feFlood flood-opacity="0" result="BackgroundImageFix"/>
<feGaussianBlur in="BackgroundImageFix" stdDeviation="0.772648"/>
<feComposite in2="SourceAlpha" operator="in" result="effect1_backgroundBlur_12_1092"/>
<feBlend mode="normal" in="SourceGraphic" in2="effect1_backgroundBlur_12_1092" result="shape"/>
</filter>
<filter id="filter14_b_12_1092" x="86.5243" y="111.299" width="15.0778" height="12.1801" filterUnits="userSpaceOnUse" color-interpolation-filters="sRGB">
<feFlood flood-opacity="0" result="BackgroundImageFix"/>
<feGaussianBlur in="BackgroundImageFix" stdDeviation="0.772648"/>
<feComposite in2="SourceAlpha" operator="in" result="effect1_backgroundBlur_12_1092"/>
<feBlend mode="normal" in="SourceGraphic" in2="effect1_backgroundBlur_12_1092" result="shape"/>
</filter>
<filter id="filter15_b_12_1092" x="86.5243" y="139.54" width="15.0778" height="12.1801" filterUnits="userSpaceOnUse" color-interpolation-filters="sRGB">
<feFlood flood-opacity="0" result="BackgroundImageFix"/>
<feGaussianBlur in="BackgroundImageFix" stdDeviation="0.772648"/>
<feComposite in2="SourceAlpha" operator="in" result="effect1_backgroundBlur_12_1092"/>
<feBlend mode="normal" in="SourceGraphic" in2="effect1_backgroundBlur_12_1092" result="shape"/>
</filter>
<filter id="filter16_b_12_1092" x="99.9795" y="164.874" width="77.6857" height="21.508" filterUnits="userSpaceOnUse" color-interpolation-filters="sRGB">
<feFlood flood-opacity="0" result="BackgroundImageFix"/>
<feGaussianBlur in="BackgroundImageFix" stdDeviation="0.772648"/>
<feComposite in2="SourceAlpha" operator="in" result="effect1_backgroundBlur_12_1092"/>
<feBlend mode="normal" in="SourceGraphic" in2="effect1_backgroundBlur_12_1092" result="shape"/>
</filter>
<filter id="filter17_b_12_1092" x="103.593" y="163.233" width="76.1857" height="22.008" filterUnits="userSpaceOnUse" color-interpolation-filters="sRGB">
<feFlood flood-opacity="0" result="BackgroundImageFix"/>
<feGaussianBlur in="BackgroundImageFix" stdDeviation="0.772648"/>
<feComposite in2="SourceAlpha" operator="in" result="effect1_backgroundBlur_12_1092"/>
<feBlend mode="normal" in="SourceGraphic" in2="effect1_backgroundBlur_12_1092" result="shape"/>
</filter>
<filter id="filter18_b_12_1092" x="117.082" y="-1.25883" width="55.4014" height="185.563" filterUnits="userSpaceOnUse" color-interpolation-filters="sRGB">
<feFlood flood-opacity="0" result="BackgroundImageFix"/>
<feGaussianBlur in="BackgroundImageFix" stdDeviation="0.772648"/>
<feComposite in2="SourceAlpha" operator="in" result="effect1_backgroundBlur_12_1092"/>
<feBlend mode="normal" in="SourceGraphic" in2="effect1_backgroundBlur_12_1092" result="shape"/>
</filter>
<filter id="filter19_b_12_1092" x="129.282" y="8.65005" width="13.0611" height="48.9485" filterUnits="userSpaceOnUse" color-interpolation-filters="sRGB">
<feFlood flood-opacity="0" result="BackgroundImageFix"/>
<feGaussianBlur in="BackgroundImageFix" stdDeviation="0.772648"/>
<feComposite in2="SourceAlpha" operator="in" result="effect1_backgroundBlur_12_1092"/>
<feBlend mode="normal" in="SourceGraphic" in2="effect1_backgroundBlur_12_1092" result="shape"/>
</filter>
<filter id="filter20_b_12_1092" x="126.689" y="157.42" width="13.8909" height="15.7234" filterUnits="userSpaceOnUse" color-interpolation-filters="sRGB">
<feFlood flood-opacity="0" result="BackgroundImageFix"/>
<feGaussianBlur in="BackgroundImageFix" stdDeviation="0.772648"/>
<feComposite in2="SourceAlpha" operator="in" result="effect1_backgroundBlur_12_1092"/>
<feBlend mode="normal" in="SourceGraphic" in2="effect1_backgroundBlur_12_1092" result="shape"/>
</filter>
<filter id="filter21_b_12_1092" x="147.115" y="155.885" width="10.8366" height="15.2574" filterUnits="userSpaceOnUse" color-interpolation-filters="sRGB">
<feFlood flood-opacity="0" result="BackgroundImageFix"/>
<feGaussianBlur in="BackgroundImageFix" stdDeviation="0.772648"/>
<feComposite in2="SourceAlpha" operator="in" result="effect1_backgroundBlur_12_1092"/>
<feBlend mode="normal" in="SourceGraphic" in2="effect1_backgroundBlur_12_1092" result="shape"/>
</filter>
<filter id="filter22_b_12_1092" x="121.226" y="172.642" width="7.40029" height="6.87837" filterUnits="userSpaceOnUse" color-interpolation-filters="sRGB">
<feFlood flood-opacity="0" result="BackgroundImageFix"/>
<feGaussianBlur in="BackgroundImageFix" stdDeviation="0.772648"/>
<feComposite in2="SourceAlpha" operator="in" result="effect1_backgroundBlur_12_1092"/>
<feBlend mode="normal" in="SourceGraphic" in2="effect1_backgroundBlur_12_1092" result="shape"/>
</filter>
<filter id="filter23_b_12_1092" x="116.371" y="164.389" width="25.2735" height="19.5564" filterUnits="userSpaceOnUse" color-interpolation-filters="sRGB">
<feFlood flood-opacity="0" result="BackgroundImageFix"/>
<feGaussianBlur in="BackgroundImageFix" stdDeviation="0.772648"/>
<feComposite in2="SourceAlpha" operator="in" result="effect1_backgroundBlur_12_1092"/>
<feBlend mode="normal" in="SourceGraphic" in2="effect1_backgroundBlur_12_1092" result="shape"/>
</filter>
<filter id="filter24_b_12_1092" x="145.561" y="159.926" width="14.6204" height="20.7099" filterUnits="userSpaceOnUse" color-interpolation-filters="sRGB">
<feFlood flood-opacity="0" result="BackgroundImageFix"/>
<feGaussianBlur in="BackgroundImageFix" stdDeviation="0.772648"/>
<feComposite in2="SourceAlpha" operator="in" result="effect1_backgroundBlur_12_1092"/>
<feBlend mode="normal" in="SourceGraphic" in2="effect1_backgroundBlur_12_1092" result="shape"/>
</filter>
<filter id="filter25_b_12_1092" x="117.996" y="79.1751" width="46.4776" height="84.0419" filterUnits="userSpaceOnUse" color-interpolation-filters="sRGB">
<feFlood flood-opacity="0" result="BackgroundImageFix"/>
<feGaussianBlur in="BackgroundImageFix" stdDeviation="0.772648"/>
<feComposite in2="SourceAlpha" operator="in" result="effect1_backgroundBlur_12_1092"/>
<feBlend mode="normal" in="SourceGraphic" in2="effect1_backgroundBlur_12_1092" result="shape"/>
</filter>
<filter id="filter26_b_12_1092" x="131.543" y="15.1359" width="29.9697" height="32.5254" filterUnits="userSpaceOnUse" color-interpolation-filters="sRGB">
<feFlood flood-opacity="0" result="BackgroundImageFix"/>
<feGaussianBlur in="BackgroundImageFix" stdDeviation="0.772648"/>
<feComposite in2="SourceAlpha" operator="in" result="effect1_backgroundBlur_12_1092"/>
<feBlend mode="normal" in="SourceGraphic" in2="effect1_backgroundBlur_12_1092" result="shape"/>
</filter>
<filter id="filter27_b_12_1092" x="136.074" y="8.37621" width="25.4382" height="23.0679" filterUnits="userSpaceOnUse" color-interpolation-filters="sRGB">
<feFlood flood-opacity="0" result="BackgroundImageFix"/>
<feGaussianBlur in="BackgroundImageFix" stdDeviation="0.772648"/>
<feComposite in2="SourceAlpha" operator="in" result="effect1_backgroundBlur_12_1092"/>
<feBlend mode="normal" in="SourceGraphic" in2="effect1_backgroundBlur_12_1092" result="shape"/>
</filter>
<filter id="filter28_b_12_1092" x="118.179" y="29.3472" width="54.3047" height="65.5213" filterUnits="userSpaceOnUse" color-interpolation-filters="sRGB">
<feFlood flood-opacity="0" result="BackgroundImageFix"/>
<feGaussianBlur in="BackgroundImageFix" stdDeviation="0.772648"/>
<feComposite in2="SourceAlpha" operator="in" result="effect1_backgroundBlur_12_1092"/>
<feBlend mode="normal" in="SourceGraphic" in2="effect1_backgroundBlur_12_1092" result="shape"/>
</filter>
<filter id="filter29_b_12_1092" x="156.216" y="94.997" width="6.78688" height="16.778" filterUnits="userSpaceOnUse" color-interpolation-filters="sRGB">
<feFlood flood-opacity="0" result="BackgroundImageFix"/>
<feGaussianBlur in="BackgroundImageFix" stdDeviation="0.772648"/>
<feComposite in2="SourceAlpha" operator="in" result="effect1_backgroundBlur_12_1092"/>
<feBlend mode="normal" in="SourceGraphic" in2="effect1_backgroundBlur_12_1092" result="shape"/>
</filter>
<filter id="filter30_b_12_1092" x="125.42" y="54.0326" width="23.7683" height="11.0404" filterUnits="userSpaceOnUse" color-interpolation-filters="sRGB">
<feFlood flood-opacity="0" result="BackgroundImageFix"/>
<feGaussianBlur in="BackgroundImageFix" stdDeviation="0.772648"/>
<feComposite in2="SourceAlpha" operator="in" result="effect1_backgroundBlur_12_1092"/>
<feBlend mode="normal" in="SourceGraphic" in2="effect1_backgroundBlur_12_1092" result="shape"/>
</filter>
<filter id="filter31_b_12_1092" x="125.42" y="54.0326" width="23.7993" height="11.6628" filterUnits="userSpaceOnUse" color-interpolation-filters="sRGB">
<feFlood flood-opacity="0" result="BackgroundImageFix"/>
<feGaussianBlur in="BackgroundImageFix" stdDeviation="0.772648"/>
<feComposite in2="SourceAlpha" operator="in" result="effect1_backgroundBlur_12_1092"/>
<feBlend mode="normal" in="SourceGraphic" in2="effect1_backgroundBlur_12_1092" result="shape"/>
</filter>
<filter id="filter32_b_12_1092" x="125.42" y="54.148" width="23.7993" height="11.6628" filterUnits="userSpaceOnUse" color-interpolation-filters="sRGB">
<feFlood flood-opacity="0" result="BackgroundImageFix"/>
<feGaussianBlur in="BackgroundImageFix" stdDeviation="0.772648"/>
<feComposite in2="SourceAlpha" operator="in" result="effect1_backgroundBlur_12_1092"/>
<feBlend mode="normal" in="SourceGraphic" in2="effect1_backgroundBlur_12_1092" result="shape"/>
</filter>
<filter id="filter33_b_12_1092" x="142.67" y="55.2709" width="4.78298" height="4.78298" filterUnits="userSpaceOnUse" color-interpolation-filters="sRGB">
<feFlood flood-opacity="0" result="BackgroundImageFix"/>
<feGaussianBlur in="BackgroundImageFix" stdDeviation="0.772648"/>
<feComposite in2="SourceAlpha" operator="in" result="effect1_backgroundBlur_12_1092"/>
<feBlend mode="normal" in="SourceGraphic" in2="effect1_backgroundBlur_12_1092" result="shape"/>
</filter>
<filter id="filter34_b_12_1092" x="117.87" y="57.21" width="23.5163" height="17.8536" filterUnits="userSpaceOnUse" color-interpolation-filters="sRGB">
<feFlood flood-opacity="0" result="BackgroundImageFix"/>
<feGaussianBlur in="BackgroundImageFix" stdDeviation="0.772648"/>
<feComposite in2="SourceAlpha" operator="in" result="effect1_backgroundBlur_12_1092"/>
<feBlend mode="normal" in="SourceGraphic" in2="effect1_backgroundBlur_12_1092" result="shape"/>
</filter>
<filter id="filter35_b_12_1092" x="139.252" y="57.2101" width="23.2847" height="22.9142" filterUnits="userSpaceOnUse" color-interpolation-filters="sRGB">
<feFlood flood-opacity="0" result="BackgroundImageFix"/>
<feGaussianBlur in="BackgroundImageFix" stdDeviation="0.772648"/>
<feComposite in2="SourceAlpha" operator="in" result="effect1_backgroundBlur_12_1092"/>
<feBlend mode="normal" in="SourceGraphic" in2="effect1_backgroundBlur_12_1092" result="shape"/>
</filter>
<filter id="filter36_b_12_1092" x="152.922" y="40.4166" width="20.5622" height="42.7405" filterUnits="userSpaceOnUse" color-interpolation-filters="sRGB">
<feFlood flood-opacity="0" result="BackgroundImageFix"/>
<feGaussianBlur in="BackgroundImageFix" stdDeviation="0.772648"/>
<feComposite in2="SourceAlpha" operator="in" result="effect1_backgroundBlur_12_1092"/>
<feBlend mode="normal" in="SourceGraphic" in2="effect1_backgroundBlur_12_1092" result="shape"/>
</filter>
<filter id="filter37_b_12_1092" x="130.976" y="-1.25877" width="42.5081" height="48.6914" filterUnits="userSpaceOnUse" color-interpolation-filters="sRGB">
<feFlood flood-opacity="0" result="BackgroundImageFix"/>
<feGaussianBlur in="BackgroundImageFix" stdDeviation="0.772648"/>
<feComposite in2="SourceAlpha" operator="in" result="effect1_backgroundBlur_12_1092"/>
<feBlend mode="normal" in="SourceGraphic" in2="effect1_backgroundBlur_12_1092" result="shape"/>
</filter>
<filter id="filter38_b_12_1092" x="116.371" y="172.422" width="25.2727" height="11.5236" filterUnits="userSpaceOnUse" color-interpolation-filters="sRGB">
<feFlood flood-opacity="0" result="BackgroundImageFix"/>
<feGaussianBlur in="BackgroundImageFix" stdDeviation="0.772648"/>
<feComposite in2="SourceAlpha" operator="in" result="effect1_backgroundBlur_12_1092"/>
<feBlend mode="normal" in="SourceGraphic" in2="effect1_backgroundBlur_12_1092" result="shape"/>
</filter>
<filter id="filter39_b_12_1092" x="145.561" y="172.622" width="14.6204" height="8.34631" filterUnits="userSpaceOnUse" color-interpolation-filters="sRGB">
<feFlood flood-opacity="0" result="BackgroundImageFix"/>
<feGaussianBlur in="BackgroundImageFix" stdDeviation="0.772648"/>
<feComposite in2="SourceAlpha" operator="in" result="effect1_backgroundBlur_12_1092"/>
<feBlend mode="normal" in="SourceGraphic" in2="effect1_backgroundBlur_12_1092" result="shape"/>
</filter>
<filter id="filter40_b_12_1092" x="129.975" y="6.60131" width="39.6701" height="40.6988" filterUnits="userSpaceOnUse" color-interpolation-filters="sRGB">
<feFlood flood-opacity="0" result="BackgroundImageFix"/>
<feGaussianBlur in="BackgroundImageFix" stdDeviation="0.772648"/>
<feComposite in2="SourceAlpha" operator="in" result="effect1_backgroundBlur_12_1092"/>
<feBlend mode="normal" in="SourceGraphic" in2="effect1_backgroundBlur_12_1092" result="shape"/>
</filter>
<filter id="filter41_b_12_1092" x="128.126" y="94.1432" width="3.84157" height="3.96648" filterUnits="userSpaceOnUse" color-interpolation-filters="sRGB">
<feFlood flood-opacity="0" result="BackgroundImageFix"/>
<feGaussianBlur in="BackgroundImageFix" stdDeviation="0.772648"/>
<feComposite in2="SourceAlpha" operator="in" result="effect1_backgroundBlur_12_1092"/>
<feBlend mode="normal" in="SourceGraphic" in2="effect1_backgroundBlur_12_1092" result="shape"/>
</filter>
<filter id="filter42_b_12_1092" x="156.314" y="92.6962" width="6.20888" height="5.27284" filterUnits="userSpaceOnUse" color-interpolation-filters="sRGB">
<feFlood flood-opacity="0" result="BackgroundImageFix"/>
<feGaussianBlur in="BackgroundImageFix" stdDeviation="0.772648"/>
<feComposite in2="SourceAlpha" operator="in" result="effect1_backgroundBlur_12_1092"/>
<feBlend mode="normal" in="SourceGraphic" in2="effect1_backgroundBlur_12_1092" result="shape"/>
</filter>
<linearGradient id="paint0_linear_12_1092" x1="131.705" y1="45.9045" x2="131.705" y2="45.9045" gradientUnits="userSpaceOnUse">
<stop stop-color="#808080" stop-opacity="0.25098"/>
<stop offset="0.53514" stop-color="#808080" stop-opacity="0.121569"/>
<stop offset="1" stop-color="#808080" stop-opacity="0.101961"/>
</linearGradient>
</defs>
</svg>
