<svg width="205" height="191" viewBox="0 0 205 191" fill="none" xmlns="http://www.w3.org/2000/svg">
<g id="Grupo 104">
<path id="Caminho 67" d="M102.098 35.12C109.913 15.21 126.631 0.000398636 147.395 0.000398636C164.879 0.000398636 179.249 9.24576 190.948 21.7787C206.494 38.4292 213.419 76.6707 184.602 105.483C169.983 120.103 102.268 190.502 102.268 190.502C102.268 190.502 34.5569 120.103 19.937 105.483C-8.8792 76.6703 -2.29652 38.4288 13.5911 21.7783C25.4248 9.37617 39.6598 0 57.144 0C77.9082 -1.90735e-06 94.2835 15.21 102.098 35.12Z" fill="#E64C3C"/>
<path id="Caminho 68" d="M77.2802 88.2883H126.72V74.1629H77.2802V88.2883Z" fill="#BDC3C7"/>
<path id="Caminho 69" d="M50.7958 98.685C45.9189 98.685 41.9673 94.7334 41.9673 89.8565V72.1995C41.9673 67.3226 45.9189 63.3709 50.7958 63.3709C55.6727 63.3709 59.6243 67.3226 59.6243 72.1995V89.8565C59.6243 94.7334 55.6727 98.685 50.7958 98.685Z" fill="#546A79"/>
<path id="Caminho 70" d="M68.4528 105.748C63.5759 105.748 59.6243 101.796 59.6243 96.9192V65.1367C59.6243 60.2598 63.5759 56.3082 68.4528 56.3082C73.3298 56.3082 77.2814 60.2598 77.2814 65.1367V96.9192C77.2814 101.796 73.3298 105.748 68.4528 105.748Z" fill="#38454F"/>
<path id="Caminho 71" d="M153.206 63.3709C158.083 63.3709 162.035 67.3226 162.035 72.1995V89.8565C162.035 94.7334 158.083 98.685 153.206 98.685C148.329 98.685 144.378 94.7334 144.378 89.8565V72.1995C144.378 67.323 148.329 63.3709 153.206 63.3709Z" fill="#546A79"/>
<path id="Caminho 72" d="M135.549 56.3082C140.426 56.3082 144.378 60.2598 144.378 65.1367V96.9192C144.378 101.796 140.426 105.748 135.549 105.748C130.672 105.748 126.721 101.796 126.721 96.9192V65.1367C126.721 60.2598 130.673 56.3082 135.549 56.3082Z" fill="#38454F"/>
</g>
</svg>
